<svg width="104" height="104" viewBox="0 0 104 104" fill="none" xmlns="http://www.w3.org/2000/svg">
<path d="M51.61 102.571C79.7553 102.571 102.572 79.7552 102.572 51.6099C102.572 23.4646 79.7553 0.648315 51.61 0.648315C23.4647 0.648315 0.648438 23.4646 0.648438 51.6099C0.648438 79.7552 23.4647 102.571 51.61 102.571Z" fill="#1E388B"/>
<mask id="mask0_269_332" style="mask-type:luminance" maskUnits="userSpaceOnUse" x="0" y="0" width="103" height="103">
<path d="M51.609 102.571C79.7543 102.571 102.571 79.7552 102.571 51.6099C102.571 23.4646 79.7543 0.648315 51.609 0.648315C23.4637 0.648315 0.647461 23.4646 0.647461 51.6099C0.647461 79.7552 23.4637 102.571 51.609 102.571Z" fill="white"/>
</mask>
<g mask="url(#mask0_269_332)">
<path d="M72.0319 70.0004C72.3387 66.2316 72.4727 61.0667 72.7796 57.2979C73.5619 47.6337 74.3182 37.7016 71.4873 28.4307C69.9702 23.4604 67.1523 19.3674 59.7226 20.2663C56.4983 15.8924 41.0253 15.2225 33.6303 23.9488C29.8009 28.4653 28.7031 34.7453 29.0273 40.6579C29.3514 46.5705 30.9419 52.3275 31.8625 58.1752C32.6794 63.3315 32.9517 66.2402 32.7313 71.4527C40.5153 72.4467 54.2768 74.2966 72.0319 70.0048V70.0004Z" fill="#313131"/>
<path d="M72.5288 70.0005C72.8487 66.0414 72.9308 62.0651 73.2117 58.1018C73.5316 53.6328 73.9422 49.1767 73.9854 44.6947C74.0286 40.1782 73.7304 35.6357 72.7363 31.2228C72.0621 28.2406 71.1631 25.0639 69.1058 22.7127C68.2111 21.6883 67.0917 20.9017 65.8383 20.3831C64.3601 19.7737 62.7264 19.5921 61.1359 19.6483C60.6604 19.6656 60.1893 19.7045 59.7182 19.7607L60.1461 20.007C59.2947 18.8617 58.0024 18.1658 56.6884 17.6731C54.9856 17.0378 53.1443 16.7569 51.3377 16.6574C49.2199 16.5451 47.0848 16.7136 45.0059 17.1242C42.806 17.5608 40.6536 18.2869 38.6654 19.3328C36.6773 20.3787 34.7885 21.8137 33.3017 23.5598C31.413 25.7813 30.1336 28.4524 29.3902 31.2574C28.6468 34.0624 28.3962 37.036 28.4999 39.9491C28.6209 43.3895 29.2087 46.7996 29.8613 50.1708C30.514 53.542 31.2185 56.9824 31.7112 60.4227C32.1175 63.271 32.3422 66.1236 32.3076 69.002C32.299 69.8146 32.2731 70.6271 32.2385 71.4397C32.2255 71.7336 32.4762 71.9022 32.7355 71.9367C36.6513 72.4381 40.5714 72.8876 44.5175 73.0778C50.0152 73.3457 55.5301 73.1599 60.9932 72.4943C64.7534 72.0361 68.4877 71.3576 72.1701 70.4716C72.7925 70.3203 72.5288 69.3608 71.9065 69.5121C65.7475 70.9989 59.4589 71.8849 53.1314 72.1312C48.308 72.3171 43.4759 72.1269 38.674 71.6428C36.6902 71.444 34.715 71.1933 32.7355 70.9427L33.2326 71.4397C33.3579 68.5007 33.319 65.5746 32.9905 62.6486C32.6275 59.4027 32.057 56.1871 31.4259 52.9845C30.2028 46.778 28.8111 40.4072 29.8138 34.0667C30.2503 31.3006 31.1147 28.5864 32.5972 26.1963C33.8463 24.1778 35.5319 22.4706 37.5114 21.161C41.0858 18.8012 45.4251 17.6775 49.678 17.6126C51.5495 17.5824 53.3302 17.7423 55.1195 18.2134C55.4999 18.3128 55.8802 18.4295 56.2519 18.5592C56.6625 18.7061 56.8657 18.7882 57.2287 18.9611C57.5313 19.1081 57.8252 19.268 58.1061 19.4452C58.2358 19.5316 58.3654 19.6181 58.4908 19.7131C58.508 19.7261 58.6074 19.8039 58.5124 19.7261C58.5426 19.7477 58.5729 19.7737 58.5988 19.7953C58.6636 19.8515 58.7285 19.9033 58.7933 19.9638C58.897 20.0589 59.0008 20.1583 59.0958 20.2621C59.1434 20.3139 59.1866 20.3658 59.2298 20.4176C59.2514 20.4436 59.273 20.4695 59.2947 20.4954C59.2082 20.3874 59.2817 20.4782 59.2947 20.4998C59.3941 20.6294 59.541 20.7677 59.7225 20.7461C61.3649 20.5516 63.0505 20.5473 64.6497 21.0054C65.8729 21.3555 66.9879 21.9909 67.8956 22.8639C69.9356 24.8305 70.8389 27.6874 71.5261 30.393C72.6153 34.6934 72.987 39.1365 72.9999 43.5623C73.0129 48.0098 72.6758 52.4485 72.3171 56.8786C71.9972 60.8074 71.8978 64.7491 71.6342 68.6822C71.6039 69.1188 71.5737 69.551 71.5391 69.9875C71.5175 70.2555 71.7811 70.4845 72.0361 70.4845C72.3214 70.4845 72.5116 70.2555 72.5332 69.9875L72.5288 70.0005Z" fill="#313131"/>
<path d="M37.4073 44.4484C35.6958 41.8336 30.9113 43.0308 31.2354 47.6641C31.4342 50.5382 34.4813 54.6442 38.3193 52.803" fill="white"/>
<path d="M37.8349 44.1977C37.1477 43.1647 35.9937 42.5596 34.749 42.5942C33.5042 42.6288 32.3156 43.2857 31.5766 44.31C30.6905 45.5332 30.5479 47.2145 30.8894 48.6494C31.2308 50.0843 32.1039 51.5754 33.2838 52.5479C33.9624 53.1055 34.7576 53.542 35.635 53.6889C36.655 53.8618 37.6448 53.6716 38.574 53.2351C38.816 53.1227 38.8809 52.7727 38.7512 52.5566C38.6043 52.3059 38.3147 52.2627 38.0726 52.3794C36.789 52.9844 35.4103 52.8461 34.2519 52.0465C33.1801 51.3075 32.3891 50.1103 31.9915 48.8871C31.6155 47.7374 31.5852 46.363 32.1514 45.2782C32.2162 45.1572 32.2854 45.0405 32.3589 44.9281C32.454 44.7855 32.4799 44.7552 32.5879 44.6342C32.6744 44.5391 32.7608 44.4483 32.8559 44.3619C32.9683 44.2582 33.0288 44.215 33.1066 44.1588C33.5474 43.8519 33.8975 43.7093 34.4421 43.6185C34.4464 43.6185 34.5242 43.6055 34.468 43.6185C34.4075 43.6272 34.5285 43.6142 34.5415 43.6099C34.6107 43.6055 34.6798 43.6012 34.749 43.5969C34.8873 43.5969 35.0256 43.5969 35.1639 43.6099C35.1769 43.6099 35.2719 43.6228 35.2114 43.6142C35.1509 43.6055 35.2849 43.6272 35.2806 43.6272C35.3411 43.6401 35.4016 43.6488 35.4621 43.6661C35.5961 43.6963 35.7258 43.7395 35.8554 43.7871C35.9462 43.8216 35.8814 43.8 35.8641 43.7871C35.8986 43.8044 35.9332 43.8173 35.9678 43.8346C36.0283 43.8649 36.0931 43.8994 36.1536 43.934C36.2142 43.9686 36.2747 44.0075 36.3309 44.0464C36.3481 44.0594 36.3698 44.0723 36.387 44.0853C36.5124 44.1717 36.3179 44.0248 36.4346 44.1199C36.6723 44.31 36.8409 44.5045 36.9748 44.7033C37.3293 45.235 38.1893 44.7379 37.8349 44.202V44.1977Z" fill="#313131"/>
<path d="M33.1466 48.3684C33.6177 48.2863 34.2401 48.2777 34.7112 48.3555C35.2688 48.4506 35.7831 48.6191 36.2672 48.8784C36.5049 49.0038 36.8074 48.9389 36.9457 48.7012C37.084 48.4635 37.0062 48.148 36.7685 48.0227C35.5756 47.3787 34.2185 47.1755 32.883 47.4089C32.6193 47.4565 32.4681 47.7806 32.5372 48.0183C32.615 48.2993 32.883 48.4117 33.1466 48.3641V48.3684Z" fill="#313131"/>
<path d="M61.4985 55.582L42.8574 58.4994C42.9828 60.2195 43.4193 65.3109 43.5749 68.1851L61.5331 56.857C61.5288 56.3859 61.5158 55.9537 61.4985 55.5776V55.582Z" fill="#313131"/>
<path d="M61.3647 55.1023C60.7509 55.1974 60.1372 55.2968 59.5191 55.3919C58.0324 55.6253 56.5456 55.8587 55.0631 56.0877C53.2737 56.3687 51.4844 56.6496 49.6908 56.9306L45.0229 57.661C44.2752 57.7777 43.4929 57.8425 42.7582 58.0154C42.7452 58.0154 42.7365 58.0154 42.7236 58.0197C42.5248 58.05 42.3432 58.3006 42.3605 58.4995C42.542 61.0019 42.7625 63.5044 42.9397 66.0069C42.9915 66.733 43.0391 67.4591 43.078 68.1852C43.0953 68.544 43.4886 68.8249 43.8257 68.6131C44.4567 68.2155 45.0921 67.8135 45.7231 67.4159C47.2185 66.4737 48.7183 65.5271 50.2137 64.5849C51.9944 63.4612 53.7708 62.3418 55.5515 61.218C57.0296 60.2845 58.5121 59.3509 59.9903 58.4173L61.3301 57.5702C61.5548 57.4276 61.9395 57.259 62.013 56.9867C62.0778 56.7577 62.0259 56.4638 62.0216 56.2261C62.0173 56.0099 62.0087 55.7938 62 55.5777C61.9741 54.9424 60.98 54.9381 61.0059 55.5777C61.0232 56.0013 61.0319 56.4292 61.0405 56.8571L61.2869 56.4292C60.6947 56.8052 60.0983 57.1769 59.5062 57.5529C58.0713 58.4562 56.6406 59.3596 55.2057 60.2672C53.4769 61.3564 51.7524 62.4455 50.0236 63.5347C48.5281 64.4769 47.037 65.4191 45.5416 66.3613L44.0634 67.2949C43.83 67.4418 43.575 67.5715 43.3589 67.7401C43.3503 67.7487 43.3373 67.753 43.3287 67.7617L44.0764 68.1895C43.9294 65.4839 43.696 62.7826 43.4843 60.0857C43.441 59.5584 43.3978 59.0311 43.3632 58.5038L43.0002 58.9835C43.6139 58.8884 44.2277 58.789 44.8457 58.694C46.3325 58.4606 47.8193 58.2272 49.3018 57.9981C51.0911 57.7172 52.8804 57.4362 54.6741 57.1553L59.3419 56.4249C60.0897 56.3082 60.872 56.2433 61.6067 56.0705C61.6197 56.0705 61.6283 56.0705 61.6413 56.0661C61.9049 56.0229 62.0519 55.6944 61.987 55.4567C61.9093 55.1758 61.6413 55.0677 61.3776 55.111L61.3647 55.1023Z" fill="#313131"/>
<path d="M43.5764 68.1852C43.6931 70.3678 43.8055 72.4424 43.9006 73.7434L35.6973 77.1103L53.9796 124.653L70.9438 74.5775L61.0981 72.3517C61.0981 72.3517 61.5865 61.4211 61.5346 56.8484L43.5764 68.1765V68.1852Z" fill="white"/>
<path d="M43.0792 68.1852C43.1786 70.0394 43.2694 71.8936 43.4034 73.7434L43.7664 73.2637C41.372 74.2448 38.9776 75.2302 36.5875 76.2113C36.246 76.3496 35.9046 76.4923 35.5631 76.6306C35.3341 76.7257 35.1093 76.9677 35.2174 77.24C35.3816 77.6636 35.5415 78.0871 35.7058 78.5107L37.037 81.9683C37.6939 83.6712 38.3466 85.3784 39.0035 87.0813L41.4023 93.3224L44.0301 100.16C44.9161 102.459 45.7978 104.759 46.6838 107.062C47.5093 109.206 48.3349 111.354 49.1604 113.498C49.8562 115.313 50.5564 117.124 51.2523 118.939C51.7536 120.245 52.255 121.55 52.7563 122.851C52.9941 123.469 53.2274 124.091 53.4695 124.705C53.4781 124.731 53.4911 124.757 53.4997 124.787C53.6726 125.241 54.295 125.271 54.4592 124.787C54.6105 124.342 54.7618 123.897 54.9131 123.452C55.3237 122.233 55.7386 121.018 56.1492 119.799C56.7543 118.006 57.3637 116.216 57.9688 114.423C58.7122 112.227 59.4556 110.032 60.2033 107.832L62.6366 100.644C63.4578 98.2236 64.2747 95.8076 65.0959 93.3872C65.8652 91.1225 66.6302 88.8577 67.3995 86.593C68.0435 84.6869 68.6918 82.7809 69.3358 80.8748L70.7362 76.7429C70.9566 76.0946 71.2029 75.4506 71.3974 74.7937C71.4061 74.7634 71.4147 74.7375 71.4277 74.7073C71.5098 74.4609 71.3326 74.154 71.0819 74.0978C68.2034 73.4452 65.3249 72.7969 62.4421 72.1443C62.0401 72.0535 61.6382 71.9627 61.2362 71.872L61.5993 72.3517C61.7722 68.4273 61.9191 64.4985 62.0012 60.5698C62.0272 59.3293 62.0488 58.0889 62.0358 56.8484C62.0358 56.4811 61.6123 56.2131 61.2881 56.4206C59.2524 57.7042 57.221 58.9879 55.1853 60.2715C51.9697 62.2986 48.7541 64.33 45.5385 66.357C44.8037 66.8195 44.0647 67.2863 43.3299 67.7487C42.7896 68.0902 43.2867 68.9503 43.8313 68.6088C45.867 67.3252 47.8983 66.0415 49.934 64.7578C53.1496 62.7308 56.3653 60.6994 59.5809 58.6724C60.3156 58.2099 61.0547 57.7431 61.7895 57.2807L61.0417 56.8528C61.0893 61.5595 60.8602 66.2749 60.6657 70.973C60.6484 71.4311 60.6268 71.8936 60.6052 72.3517C60.5966 72.5592 60.7651 72.7839 60.9683 72.8315C63.8468 73.4841 66.7253 74.1324 69.6081 74.785C70.0101 74.8758 70.412 74.9666 70.814 75.0573L70.4682 74.4479C70.3169 74.8931 70.1656 75.3383 70.0144 75.7834C69.6038 77.0023 69.1889 78.2168 68.7783 79.4356L66.9587 84.8123C66.2153 87.0079 65.4719 89.2035 64.7242 91.4034L62.2908 98.591L59.8316 105.848L57.5279 112.642C56.8839 114.548 56.2356 116.454 55.5916 118.36L54.1913 122.492C53.9752 123.136 53.7029 123.784 53.53 124.441C53.5213 124.472 53.5127 124.498 53.4997 124.528H54.4592C54.295 124.104 54.1351 123.681 53.9708 123.257L52.6396 119.799C51.9827 118.097 51.3301 116.389 50.6731 114.686L48.2744 108.445L45.6465 101.608C44.7605 99.3085 43.8788 97.0091 42.9928 94.7055C42.1673 92.5617 41.3418 90.4137 40.5162 88.2699C39.8204 86.4546 39.1202 84.6437 38.4243 82.8284C37.923 81.5232 37.4216 80.2179 36.9203 78.9169C36.6869 78.3075 36.4924 77.6506 36.2071 77.0628C36.1942 77.0368 36.1855 77.0109 36.1769 76.9807L35.8311 77.5901C38.2255 76.609 40.62 75.6235 43.0101 74.6424C43.3515 74.5041 43.693 74.3615 44.0344 74.2232C44.2289 74.1454 44.4147 73.9768 44.3975 73.7434C44.2635 71.8936 44.1727 70.0351 44.0733 68.1852C44.0387 67.5499 43.0446 67.5456 43.0792 68.1852Z" fill="#313131"/>
<path d="M65.472 43.7394C66.1851 42.4687 67.4602 41.5265 68.8864 41.2239C69.3403 41.1288 69.8157 41.0943 70.2609 41.2239C71.3932 41.5654 71.9422 42.8706 72.0199 44.0506C72.1539 46.056 71.3154 48.1047 69.8157 49.4402C68.3159 50.7757 66.1851 51.3722 64.21 51.0048" fill="white"/>
<path d="M65.8998 43.9944C66.5092 42.9269 67.5162 42.1186 68.7005 41.7815C69.3099 41.6086 70.0101 41.5222 70.5546 41.9241C70.9739 42.2353 71.2246 42.7324 71.3672 43.2208C71.713 44.3964 71.5185 45.7276 71.056 46.847C70.5633 48.0355 69.6989 49.0599 68.5924 49.7255C67.3304 50.4818 65.7917 50.7887 64.3395 50.5294C64.0759 50.4818 63.8036 50.6029 63.7301 50.8751C63.6653 51.1172 63.8122 51.4413 64.0759 51.4846C67.2223 52.0464 70.4898 50.4559 71.8426 47.5212C72.4693 46.1598 72.7503 44.539 72.3613 43.0652C72.1884 42.4125 71.8642 41.7513 71.3542 41.2931C70.7275 40.7356 69.9366 40.567 69.1154 40.6794C67.4168 40.9128 65.8868 42.0106 65.044 43.4844C64.7285 44.0419 65.5843 44.5433 65.9041 43.9858L65.8998 43.9944Z" fill="#313131"/>
<path d="M65.4453 47.1453C66.4826 46.4019 67.7058 45.9697 68.9678 45.9264C69.2358 45.9178 69.4649 45.706 69.4649 45.4294C69.4649 45.1528 69.2358 44.9237 68.9678 44.9324C67.5286 44.9842 66.1153 45.4467 64.944 46.2852C64.7279 46.4408 64.6198 46.7174 64.7668 46.9637C64.8921 47.1798 65.2292 47.3009 65.4453 47.1409V47.1453Z" fill="#313131"/>
<path d="M65.7088 41.8335C63.8028 40.1133 59.8524 32.4113 58.988 30.9029C58.0372 29.2562 56.7103 28.7678 55.3186 29.4248C53.9312 30.0817 53.0884 31.4907 52.2499 32.783C48.2952 38.8988 42.7197 43.9556 36.241 47.2922C35.3679 43.5147 34.4862 39.7329 33.6045 35.9511L38.1902 31.119L57.9464 25.7899L65.3371 31.6117C65.5662 35.0089 65.7996 38.4277 65.7045 41.8291L65.7088 41.8335Z" fill="#313131"/>
<path d="M66.058 41.4834C65.924 41.3624 65.7986 41.2327 65.6776 41.0944C65.6128 41.0209 65.548 40.9474 65.4875 40.8696C65.4529 40.8308 65.4226 40.7875 65.3881 40.7486C65.3708 40.7313 65.2627 40.5887 65.3059 40.6449C64.9818 40.2257 64.6835 39.7891 64.3896 39.344C63.6851 38.2764 63.0325 37.1743 62.3972 36.0635C61.3815 34.2871 60.4479 32.4632 59.4322 30.6868C58.6672 29.3513 57.336 28.3313 55.7325 28.7419C54.129 29.1525 52.9967 30.7041 52.115 32.0699C50.2176 34.996 48.0479 37.6972 45.5152 40.1003C42.9824 42.5034 40.186 44.5521 37.1519 46.2377C36.7673 46.4538 36.3783 46.6612 35.985 46.86L36.7154 47.1583C35.8424 43.3765 34.9563 39.599 34.079 35.8171L33.9493 36.3012C35.2848 34.8922 36.6247 33.4876 37.9602 32.0786C38.1503 31.8754 38.3448 31.6723 38.535 31.4735L38.3146 31.6031C38.9672 31.4259 39.6242 31.2487 40.2768 31.0715L44.9879 29.8008C46.8896 29.2865 48.7913 28.7765 50.693 28.2622C52.3397 27.817 53.9821 27.3761 55.6288 26.931L57.2582 26.4901C57.5132 26.421 57.7898 26.3734 58.0362 26.2783C58.0492 26.274 58.0578 26.274 58.0708 26.2697L57.5867 26.14C58.4165 26.7927 59.2464 27.4453 60.0762 28.1022C61.4074 29.1525 62.7343 30.1985 64.0655 31.2487C64.368 31.4864 64.6749 31.7285 64.9774 31.9662L64.8305 31.6161C65.0596 35.0176 65.2886 38.4234 65.1979 41.8335C65.1806 42.4731 66.1747 42.4731 66.1919 41.8335C66.2481 39.7027 66.1833 37.5719 66.0666 35.4455C66.0061 34.3649 65.9369 33.2801 65.8635 32.1996C65.8419 31.9057 65.8981 31.4735 65.6647 31.253C65.6258 31.2141 65.5782 31.1839 65.535 31.1536C64.1952 30.099 62.8553 29.0445 61.5155 27.9856C60.4393 27.1384 59.3674 26.2827 58.2869 25.4399C57.9714 25.1935 57.604 25.3664 57.2582 25.4571L55.6591 25.8893C53.9 26.3648 52.1366 26.8402 50.3775 27.3156C48.3288 27.8689 46.2802 28.4221 44.2315 28.9753C42.628 29.4075 41.0202 29.8397 39.4167 30.2763L38.2195 30.6004C38.1633 30.6134 38.1071 30.6263 38.0509 30.648C37.8478 30.7171 37.7095 30.903 37.5669 31.0542C36.2919 32.3941 35.0212 33.7382 33.7462 35.0781C33.5862 35.2466 33.422 35.4109 33.2664 35.5838C33.0244 35.856 33.1281 36.1413 33.2016 36.4568C33.3226 36.9841 33.4436 37.5071 33.5689 38.0344C34.0573 40.1349 34.5457 42.2354 35.0341 44.336C35.2718 45.3689 35.5139 46.4019 35.7516 47.4306C35.8294 47.759 36.2097 47.8671 36.482 47.7288C39.5464 46.1469 42.4119 44.1847 45.0052 41.9069C47.5984 39.6292 49.9107 37.0403 51.8816 34.2093C52.3613 33.5221 52.8022 32.809 53.269 32.1131C53.7098 31.4562 54.1939 30.7992 54.8206 30.3065C55.3392 29.9002 56.0178 29.5674 56.6964 29.6539C57.336 29.736 57.8763 30.1855 58.248 30.6955C58.7364 31.3611 59.0908 32.1477 59.4841 32.8738C60.0416 33.9068 60.6078 34.9398 61.187 35.9598C61.818 37.0749 62.462 38.1813 63.1492 39.2618C63.7068 40.1392 64.2859 41.0296 64.9818 41.8075C65.0985 41.9372 65.2195 42.0625 65.3491 42.1792C65.8203 42.6114 66.5247 41.9069 66.0536 41.4747L66.058 41.4834Z" fill="#313131"/>
<path d="M65.7087 42.3607C65.6741 43.8518 65.579 45.3472 65.4018 46.834C64.8011 51.8347 63.2019 56.8267 60.1375 60.4702C57.0732 64.1094 52.3837 66.1969 48.0833 64.9867C46.4841 64.5372 44.9973 63.6642 43.5883 62.696C41.7428 61.421 39.9578 59.8997 38.86 57.7862C38.0863 56.2994 37.706 54.5965 37.33 52.9195C36.9712 51.2987 36.6082 49.678 36.2451 48.0529C42.7196 44.5779 48.2951 39.3136 52.2541 32.9429C53.0926 31.5987 53.9354 30.1292 55.3227 29.4463C56.7101 28.7635 58.0413 29.2691 58.9922 30.985C59.8566 32.5539 63.8027 40.5757 65.713 42.365L65.7087 42.3607Z" fill="white"/>
<path d="M65.2119 42.3607C65.1212 46.095 64.6544 49.8293 63.4442 53.382C62.368 56.5415 60.6781 59.5928 58.1281 61.8014C55.8157 63.8069 52.76 65.0992 49.6611 64.788C47.928 64.6151 46.3288 63.8587 44.8679 62.9468C43.4071 62.0348 42.024 61.0191 40.8657 59.7614C39.6426 58.4345 38.8732 56.8743 38.3848 55.1497C37.8446 53.248 37.4772 51.2945 37.045 49.3711C36.9369 48.8871 36.8289 48.403 36.7208 47.9189L36.4918 48.4808C39.5864 46.8168 42.4649 44.7552 45.0581 42.3823C47.6514 40.0095 50.0112 37.2434 51.9821 34.2741C52.4618 33.5524 52.8983 32.809 53.3738 32.0829C53.8103 31.4173 54.2944 30.7473 54.9384 30.2589C55.444 29.8743 56.0967 29.5674 56.7234 29.6582C57.3976 29.7576 57.9292 30.2589 58.2966 30.8035C58.7764 31.5123 59.1351 32.3206 59.5284 33.0769C60.0859 34.1488 60.6478 35.2207 61.227 36.2839C61.8537 37.4336 62.4933 38.5789 63.1719 39.6983C63.7251 40.606 64.3 41.5179 64.9915 42.3262C65.1082 42.4601 65.2292 42.5941 65.3589 42.7152C65.8213 43.156 66.5258 42.4515 66.0634 42.0106C65.9294 41.8853 65.8041 41.747 65.683 41.6087C65.6139 41.5309 65.549 41.4488 65.4842 41.3667C65.4713 41.3494 65.4583 41.3321 65.4453 41.3148C65.3978 41.2543 65.4885 41.371 65.441 41.3105C65.4021 41.2629 65.3675 41.2111 65.3286 41.1635C65.0045 40.727 64.7063 40.2732 64.4167 39.815C63.7165 38.7129 63.0682 37.5762 62.4415 36.4309C61.4172 34.5724 60.4793 32.6663 59.4636 30.8035C58.7288 29.4594 57.4495 28.3615 55.8287 28.7376C54.2079 29.1136 53.0669 30.7128 52.2068 32.0872C51.2603 33.5956 50.2878 35.078 49.1857 36.4784C48.0836 37.8788 46.8604 39.2575 45.5768 40.5282C43.0527 43.0263 40.2174 45.2047 37.1444 46.9854C36.7684 47.2058 36.388 47.4176 36.0034 47.6207C35.8046 47.7288 35.7268 47.9708 35.7743 48.1826C36.2281 50.2096 36.656 52.241 37.1401 54.2637C37.5852 56.1222 38.1903 57.9418 39.3573 59.4848C40.4292 60.9024 41.7906 62.0435 43.2428 63.0548C44.7988 64.1397 46.4887 65.1337 48.3515 65.5703C51.5844 66.3266 54.9729 65.3412 57.6397 63.4481C60.5441 61.3865 62.5452 58.3654 63.8721 55.1022C65.3113 51.5711 65.951 47.7547 66.1541 43.9642C66.1844 43.4326 66.2017 42.8967 66.2146 42.3651C66.2319 41.7254 65.2379 41.7254 65.2206 42.3651L65.2119 42.3607Z" fill="#313131"/>
<path d="M66.3699 41.6821C66.3353 41.6735 66.305 41.6605 66.2705 41.6475L66.3872 41.6994C66.2834 41.6562 66.1927 41.5914 66.1019 41.5265L66.2013 41.6043C66.1494 41.5654 66.1019 41.5265 66.0544 41.4833C66.0111 41.4358 65.955 41.4012 65.8944 41.3796C65.8339 41.3493 65.7734 41.332 65.7043 41.3364C65.6351 41.3364 65.5703 41.3493 65.5141 41.3796C65.4536 41.4012 65.3974 41.4358 65.3542 41.4833C65.2677 41.5784 65.2029 41.7037 65.2072 41.8334L65.2245 41.9674C65.2461 42.0495 65.2894 42.123 65.3542 42.1878C65.419 42.244 65.4839 42.2959 65.5487 42.3477C65.6092 42.3953 65.6697 42.4428 65.7345 42.4817C65.7734 42.5076 65.8166 42.5292 65.8642 42.5509C65.9377 42.5854 66.0198 42.6243 66.1019 42.6416C66.2316 42.6719 66.3699 42.6589 66.4866 42.5898C66.5428 42.5595 66.5903 42.5163 66.6249 42.4601C66.6681 42.4125 66.6984 42.3564 66.7156 42.2915L66.7329 42.1575C66.7329 42.0668 66.7113 41.9847 66.6638 41.9069C66.5946 41.7988 66.4952 41.708 66.3656 41.6778L66.3699 41.6821Z" fill="#313131"/>
<path d="M14.6522 118.875L3.89461 143.48C-3.08554 153.101 -11.6303 154.985 -22.2842 146.454C-22.2842 142.093 -21.8606 141.068 -20.806 137.092C-8.57457 90.82 9.8461 77.1925 36.2453 76.0169L37.3172 76.3021L37.5808 76.5399C43.0439 92.5791 48.5114 108.618 53.9745 124.662C58.5818 107.464 66.9623 73.1946 66.9623 73.1946C93.3615 74.3702 111.786 87.9977 124.014 134.27C125.064 138.246 125.492 139.27 125.492 143.631C114.838 152.163 106.293 150.279 99.313 140.658L88.5554 116.052C90.725 130.536 89.9254 138.769 86.1696 152.928" fill="#1E388B"/>
<path d="M14.2199 118.624C12.8455 121.766 11.4754 124.904 10.101 128.046C8.12577 132.563 6.15058 137.079 4.17972 141.591C3.96794 142.075 3.77777 142.572 3.54437 143.044C3.0214 144.107 2.0619 145.062 1.26232 145.931C-1.27474 148.688 -4.53358 150.975 -8.35861 151.342C-12.4862 151.74 -16.4279 149.98 -19.7689 147.707C-20.2789 147.361 -20.7802 146.998 -21.273 146.622C-21.5971 146.372 -21.7527 146.307 -21.7873 145.905C-21.8132 145.576 -21.7786 145.23 -21.7657 144.906C-21.7354 143.968 -21.6706 143.031 -21.5193 142.106C-21.1908 140.113 -20.5814 138.155 -20.0541 136.206C-17.7548 127.666 -15.0016 119.199 -11.3063 111.151C-8.48395 105.009 -5.09545 99.0578 -0.769054 93.8497C2.75343 89.6098 6.90694 85.8928 11.6699 83.1007C16.1389 80.4815 21.0488 78.7268 26.1186 77.7024C28.7637 77.1665 31.4433 76.8294 34.136 76.6349C34.7713 76.5873 35.5018 76.4534 36.1285 76.5009C36.3619 76.5182 36.6125 76.6306 36.8416 76.6868C36.9453 76.7127 37.0577 76.7343 37.1614 76.7732C36.9108 76.6911 37.0923 76.7689 37.1917 76.9461C37.5072 77.5123 37.6455 78.2816 37.853 78.891L38.5618 80.9786L39.9362 85.0111C43.5711 95.6736 47.2016 106.336 50.8365 116.999C51.7225 119.596 52.6042 122.19 53.4902 124.787C53.6415 125.237 54.3158 125.284 54.4497 124.787C56.6626 116.519 58.7588 108.221 60.8421 99.9222C62.6963 92.5358 64.5288 85.1451 66.3484 77.75C66.7114 76.2718 67.0745 74.798 67.4376 73.3199L66.9578 73.6829C75.8483 74.0892 84.6999 76.0471 92.3413 80.7582C101.016 86.1002 107.317 94.39 112.028 103.289C115.183 109.254 117.69 115.547 119.83 121.939C121.118 125.798 122.272 129.701 123.326 133.63C123.767 135.277 124.26 136.923 124.597 138.596C124.744 139.318 124.839 140.048 124.9 140.783C124.925 141.137 124.947 141.492 124.96 141.846C124.977 142.283 125.137 143.082 124.917 143.45C124.683 143.843 123.884 144.241 123.503 144.509C123.084 144.807 122.661 145.092 122.228 145.369C121.425 145.883 120.595 146.359 119.743 146.782C118.17 147.56 116.489 148.152 114.751 148.425C111.743 148.891 108.739 148.221 106.15 146.648C104.733 145.788 103.466 144.703 102.317 143.506C101.413 142.568 100.354 141.501 99.7191 140.36C99.261 139.534 98.9455 138.587 98.5694 137.727C95.4532 130.6 92.337 123.469 89.2208 116.342L88.9874 115.806C88.7411 115.244 88.002 115.685 88.0798 116.19C88.8059 121.066 89.3116 125.989 89.2467 130.924C89.1862 135.424 88.62 139.888 87.721 144.293C87.1419 147.149 86.4374 149.98 85.694 152.798C85.5298 153.416 86.4893 153.68 86.6535 153.062C87.9328 148.239 89.0738 143.368 89.7092 138.41C90.2884 133.872 90.3791 129.295 90.0506 124.731C89.8389 121.783 89.4758 118.849 89.0393 115.927L88.1316 116.312C91.0836 123.067 94.0399 129.822 96.9919 136.582C97.5538 137.861 98.1113 139.145 98.6732 140.424C98.8244 140.77 98.9455 140.999 99.1789 141.31C100.277 142.78 101.483 144.18 102.848 145.408C105.117 147.443 107.849 149.004 110.896 149.44C114.133 149.903 117.353 149.086 120.253 147.651C122.09 146.743 123.797 145.594 125.41 144.336C125.846 143.999 125.98 143.904 125.993 143.359C126.002 142.858 125.984 142.356 125.963 141.859C125.932 141.025 125.863 140.195 125.742 139.37C125.509 137.766 125.046 136.21 124.632 134.65C124.074 132.567 123.512 130.488 122.903 128.422C120.811 121.282 118.343 114.228 115.205 107.473C110.676 97.7136 104.581 88.3477 95.8076 81.9078C88.391 76.462 79.5221 73.7607 70.4328 72.9395C69.2788 72.8358 68.1248 72.7623 66.9665 72.7061C66.7547 72.6975 66.5386 72.866 66.4867 73.0692C65.4624 77.2659 64.4251 81.4626 63.3835 85.6594C61.27 94.1955 59.1392 102.732 56.9609 111.25C55.8285 115.685 54.6831 120.115 53.4989 124.536H54.4584C50.6982 113.502 46.9423 102.468 43.1821 91.438C42.2485 88.7021 41.3193 85.9662 40.3857 83.2347L39.0113 79.2022L38.3025 77.1146C38.1555 76.6868 38.0864 76.2805 37.7147 75.9995C36.7854 75.2907 35.2857 75.576 34.2138 75.6495C32.8178 75.7489 31.4217 75.8872 30.0344 76.0687C24.7139 76.7689 19.4842 78.139 14.6218 80.434C9.61689 82.7982 5.11761 86.1218 1.27529 90.0938C-3.30179 94.8265 -6.95826 100.385 -9.98803 106.211C-13.9298 113.796 -16.8861 121.874 -19.3367 130.047C-20.0758 132.511 -20.7543 134.992 -21.4199 137.477C-21.904 139.288 -22.4226 141.086 -22.6258 142.957C-22.7468 144.046 -22.8721 145.235 -22.777 146.328C-22.7338 146.851 -22.3881 147.016 -21.9861 147.327C-21.4588 147.733 -20.9229 148.126 -20.374 148.507C-18.5025 149.79 -16.4798 150.892 -14.3188 151.606C-10.8222 152.76 -7.10521 152.656 -3.76425 151.061C-2.00084 150.218 -0.418968 149.017 0.981384 147.66C1.78529 146.882 2.52869 146.047 3.22886 145.174C3.60056 144.708 4.05438 144.228 4.33963 143.7C4.95337 142.572 5.3899 141.302 5.90423 140.122C6.95449 137.723 8.00475 135.32 9.05069 132.921C10.9481 128.582 12.8455 124.247 14.7385 119.907C14.8509 119.648 14.9633 119.393 15.0757 119.134C15.3307 118.555 14.4749 118.045 14.2156 118.632L14.2199 118.624Z" fill="#313131"/>
<path d="M86.4766 99.7275C87.3194 103.077 88.4128 113.783 88.9272 117.197L86.4766 99.7275Z" fill="white"/>
<path d="M85.9964 99.8573C86.515 101.928 86.757 104.08 87.038 106.193C87.3881 108.821 87.6949 111.453 88.0191 114.086C88.1531 115.166 88.2827 116.251 88.4426 117.327C88.4815 117.591 88.8187 117.738 89.0521 117.673C89.3373 117.595 89.441 117.327 89.3978 117.063C89.3719 116.882 89.346 116.7 89.32 116.519C89.3114 116.471 89.3071 116.419 89.2984 116.372C89.2984 116.355 89.2768 116.212 89.2854 116.264C89.2941 116.316 89.2725 116.173 89.2682 116.152C89.2595 116.091 89.2509 116.026 89.2422 115.966C89.1731 115.447 89.1082 114.928 89.0434 114.41C88.8878 113.169 88.7409 111.925 88.5896 110.684C88.2654 108.03 87.9413 105.377 87.5307 102.731C87.3664 101.681 87.2022 100.627 86.9472 99.598C86.7916 98.9756 85.8321 99.2393 85.9877 99.8616L85.9964 99.8573Z" fill="#313131"/>
<path d="M61.1536 71.2581L52.302 79.5175L43.5541 72.9653L37.3174 75.7573L42.3699 90.5907C42.3699 90.5907 50.8584 80.6845 52.3063 79.5175C53.5554 80.624 62.9646 88.421 62.9646 88.421L66.9625 73.6741L61.1579 71.2581H61.1536Z" fill="white"/>
<path d="M60.803 70.9037C59.8046 71.8329 58.8105 72.7665 57.8121 73.6957C56.2216 75.1782 54.6354 76.6607 53.0449 78.1431C52.6818 78.4846 52.3145 78.8217 51.9514 79.1631L52.5522 79.0853C51.5667 78.3463 50.5856 77.6115 49.6002 76.8724C48.0313 75.6968 46.4624 74.5212 44.8891 73.3456C44.5261 73.0733 44.163 72.8011 43.8 72.5331C43.653 72.4207 43.4499 72.4639 43.2986 72.5331C41.479 73.3456 39.6594 74.1625 37.8399 74.9751C37.5805 75.0918 37.3212 75.2085 37.0619 75.3251C36.8717 75.4116 36.768 75.6968 36.8328 75.887C37.399 77.5553 37.9695 79.2237 38.5357 80.892C39.4433 83.5544 40.3466 86.2168 41.2543 88.8792C41.4617 89.4929 41.6735 90.1066 41.881 90.7204C41.9934 91.0488 42.4515 91.2433 42.7108 90.9408C43.6963 89.7911 44.686 88.6501 45.6801 87.5091C47.3787 85.5598 49.0772 83.6106 50.832 81.7132C51.4112 81.0865 51.986 80.4079 52.6473 79.8676H51.9428C53.2999 81.0692 54.7089 82.2102 56.1006 83.3728C57.8683 84.8467 59.6404 86.3205 61.4124 87.79C61.8057 88.1185 62.2034 88.447 62.5967 88.7711C62.8776 89.0045 63.3228 88.9397 63.4265 88.5507C63.876 86.8867 64.3298 85.2227 64.7793 83.5587C65.4968 80.9093 66.2143 78.2598 66.9317 75.6147C67.096 75.0096 67.2602 74.4089 67.4244 73.8038C67.5022 73.5185 67.325 73.2981 67.0787 73.1944C65.3844 72.4899 63.6858 71.781 61.9916 71.0765C61.7539 70.9771 61.5118 70.8777 61.2741 70.7783C61.0364 70.6789 60.7295 70.8907 60.6647 71.1241C60.5869 71.4093 60.7641 71.6298 61.0105 71.7335C62.7047 72.438 64.4033 73.1468 66.0976 73.8513C66.3353 73.9507 66.5773 74.0501 66.815 74.1495L66.4693 73.5401C66.0198 75.2041 65.5659 76.8681 65.1164 78.5321C64.399 81.1816 63.6815 83.831 62.9641 86.4761C62.7998 87.0812 62.6356 87.682 62.4713 88.287L63.3012 88.0666C62.212 87.1633 61.1228 86.26 60.0337 85.3567C58.1752 83.8137 56.321 82.2707 54.4712 80.7191C53.8574 80.2048 53.2394 79.6948 52.6429 79.1631C52.4268 78.9687 52.1589 78.9859 51.9384 79.1631C51.3766 79.617 50.8882 80.1832 50.3955 80.7105C49.5613 81.6051 48.7488 82.5128 47.9362 83.429C46.2981 85.2702 44.6817 87.1287 43.0739 88.9915C42.7151 89.4065 42.3607 89.8214 42.002 90.2363L42.8318 90.4567C42.2657 88.7884 41.6951 87.1201 41.1289 85.4518C40.2213 82.7894 39.318 80.127 38.4104 77.4646C38.2029 76.8508 37.9911 76.2371 37.7837 75.6234L37.5546 76.1852C39.3742 75.3727 41.1938 74.5558 43.0134 73.7433C43.2727 73.6266 43.532 73.5099 43.7913 73.3932H43.29C44.2754 74.1323 45.2565 74.867 46.242 75.6061C47.8109 76.7817 49.3798 77.9573 50.953 79.1329C51.3161 79.4052 51.6791 79.6775 52.0422 79.9454C52.2194 80.0794 52.496 80.0059 52.6429 79.8676C53.6413 78.9384 54.6354 78.0048 55.6338 77.0756C57.2243 75.5931 58.8105 74.1106 60.4011 72.6282C60.7641 72.2867 61.1315 71.9496 61.4945 71.6082C61.9613 71.1716 61.2612 70.4671 60.7901 70.9037H60.803Z" fill="#313131"/>
<path d="M49.2458 82.4911C48.9519 86.5366 48.8914 90.595 48.9476 94.6491C49.0038 98.7032 49.194 103.038 49.4706 107.222C49.6219 109.469 49.7947 111.713 49.9936 113.956C50.0195 114.224 50.2053 114.453 50.4906 114.453C50.7413 114.453 51.0136 114.224 50.9876 113.956C50.6289 109.91 50.3436 105.861 50.1578 101.806C49.9719 97.7523 49.8725 93.4216 49.946 89.2292C49.9849 86.9817 50.0757 84.7299 50.2399 82.4868C50.2572 82.2188 49.9979 81.9897 49.7429 81.9897C49.4576 81.9897 49.2631 82.2188 49.2458 82.4868V82.4911Z" fill="#313131"/>
<path d="M35.2629 76.864C33.0284 79.842 30.7032 82.7507 28.2914 85.586C27.5956 86.4029 26.8954 87.2111 26.1866 88.015C25.9921 88.2354 25.9791 88.6503 26.286 88.7973C30.2493 90.6428 34.2689 92.3673 38.3359 93.9665C38.5866 94.0659 38.8805 93.8584 38.9453 93.6207C39.0231 93.3398 38.8503 93.1064 38.5996 93.0113C34.6103 91.4424 30.6729 89.7525 26.7874 87.9415L26.8868 88.7238C29.3979 85.8712 31.8226 82.9452 34.1522 79.9457C34.8134 79.0942 35.4704 78.2385 36.1144 77.3741C36.2743 77.158 36.149 76.8165 35.9372 76.6955C35.6822 76.5485 35.4185 76.6566 35.2586 76.8727L35.2629 76.864Z" fill="#313131"/>
<path d="M34.7827 92.5271C33.5163 96.1361 32.2542 99.7493 30.9879 103.358C30.9317 103.518 30.9922 103.73 31.1175 103.842C34.1084 106.578 37.082 109.331 40.0469 112.102C43.0119 114.872 46.0546 117.742 49.0325 120.59C50.5712 122.06 52.1012 123.529 53.6269 125.012C54.085 125.457 54.7895 124.757 54.3314 124.307C51.5307 121.589 48.7041 118.892 45.8688 116.212C42.8433 113.351 39.8049 110.507 36.7535 107.68C35.1155 106.163 33.4731 104.651 31.822 103.142L31.9517 103.626C33.2181 100.017 34.4801 96.404 35.7465 92.7951C35.9583 92.19 34.9988 91.9307 34.787 92.5315L34.7827 92.5271Z" fill="#313131"/>
<path d="M66.1096 73.7045C69.1955 76.0125 72.208 78.4155 75.1384 80.918C75.9769 81.6355 76.811 82.3573 77.6365 83.092L77.7359 82.3097C74.0751 85.0283 70.4143 87.7426 66.7492 90.4612C65.7119 91.2305 64.6746 91.9998 63.6373 92.7735C63.4212 92.9334 63.3132 93.2057 63.4601 93.452C63.5855 93.6638 63.9226 93.7892 64.1387 93.6292C67.7995 90.9107 71.4603 88.1964 75.1254 85.4778C76.1627 84.7085 77.2 83.9392 78.2373 83.1655C78.475 82.9883 78.6004 82.6166 78.3367 82.3832C75.4063 79.79 72.3939 77.2875 69.3036 74.8931C68.4132 74.2015 67.5142 73.5186 66.6109 72.8444C66.3948 72.6845 66.0577 72.8098 65.9324 73.0216C65.7854 73.2766 65.8935 73.5403 66.1096 73.7002V73.7045Z" fill="#313131"/>
<path d="M70.7642 87.8506L73.0203 91.6151L74.1484 93.4952C74.4899 94.0614 74.8918 94.6319 75.0733 95.2759C75.2549 95.9199 75.0647 96.404 74.7146 96.914C74.3213 97.4888 73.8761 98.0334 73.4526 98.5866C72.5579 99.7579 71.6632 100.925 70.7686 102.096C67.2115 106.747 63.6544 111.397 60.0974 116.052C58.0876 118.676 56.0821 121.303 54.0724 123.927C53.9081 124.139 54.0378 124.484 54.2496 124.605C54.5046 124.757 54.7639 124.64 54.9282 124.428C58.5717 119.661 62.2195 114.898 65.863 110.131C67.6739 107.762 69.4849 105.394 71.2958 103.025C72.2121 101.828 73.1284 100.627 74.0447 99.4294C74.4812 98.8546 74.9264 98.2884 75.3586 97.7092C75.7433 97.1949 76.0717 96.6331 76.1322 95.9804C76.2014 95.1981 75.8599 94.4547 75.4796 93.7934C75.069 93.076 74.6325 92.3758 74.2046 91.667C73.3402 90.2277 72.4801 88.7928 71.6157 87.3536C71.2872 86.8047 70.4271 87.306 70.7556 87.8549L70.7642 87.8506Z" fill="#313131"/>
<path d="M40.26 41.8465C43.3633 38.6957 46.272 35.3548 48.969 31.8496C49.7254 30.8685 50.4601 29.8744 51.1819 28.863C51.3159 28.6729 51.2165 28.3833 51.0263 28.2709C50.8102 28.1456 50.5725 28.2363 50.4342 28.4265C47.9015 31.9619 45.1569 35.3418 42.2093 38.5445C41.3708 39.4564 40.515 40.3511 39.6463 41.2371C39.2573 41.6347 39.8667 42.2442 40.2557 41.8465H40.26Z" fill="white"/>
<path d="M38.8735 38.9203C40.6845 37.5934 42.2404 35.9727 43.4852 34.1055C43.7964 33.6431 43.0443 33.2065 42.7375 33.669C41.5835 35.4065 40.1226 36.9408 38.437 38.1726C38.2468 38.3109 38.1561 38.5486 38.2814 38.7647C38.3895 38.9506 38.6834 39.0586 38.8735 38.9203Z" fill="white"/>
<path d="M69.4472 54.8473C69.1317 58.6637 68.8983 62.4844 68.7514 66.3094C68.7298 66.867 69.5942 66.867 69.6158 66.3094C69.7627 62.4844 69.9961 58.6637 70.3116 54.8473C70.3592 54.2941 69.4948 54.2941 69.4472 54.8473Z" fill="white"/>
<path d="M50.8411 48.2257C50.0674 48.5456 49.2808 49.2155 49.35 50.1404C49.4191 51.0092 50.1711 51.7353 51.0183 51.8822C51.2733 51.9254 51.5672 51.8131 51.6277 51.5365C51.6839 51.2944 51.5542 50.9703 51.2819 50.927C51.1998 50.9141 51.122 50.8968 51.0442 50.8709C51.0269 50.8665 50.9016 50.8147 51.0139 50.8622C50.9794 50.8449 50.9405 50.8276 50.9059 50.8103C50.8367 50.7758 50.7719 50.7325 50.7071 50.685C50.7589 50.7196 50.7417 50.7153 50.7028 50.6807C50.6725 50.6548 50.6466 50.6288 50.6206 50.6029C50.5947 50.577 50.5688 50.551 50.5428 50.5208C50.5299 50.5078 50.5169 50.4948 50.5083 50.4775C50.5428 50.5251 50.5515 50.5337 50.5299 50.5035C50.491 50.4473 50.4564 50.3954 50.4218 50.3349C50.4089 50.309 50.3786 50.2701 50.3743 50.2398C50.4002 50.3003 50.4045 50.3133 50.3916 50.2787C50.3872 50.2614 50.3786 50.2485 50.3743 50.2312C50.3656 50.2009 50.357 50.1664 50.3484 50.1361C50.3484 50.1188 50.3397 50.1058 50.3397 50.0886C50.3311 50.0497 50.3397 50.067 50.3484 50.1404C50.3613 50.1361 50.3397 49.9589 50.3484 49.9373C50.3267 49.9762 50.3311 50.0237 50.3484 49.9459C50.357 49.9114 50.37 49.8768 50.3786 49.8422C50.3829 49.8249 50.3916 49.8076 50.3959 49.7903C50.37 49.8508 50.3656 49.8595 50.3786 49.8292C50.3959 49.8033 50.4045 49.7774 50.4175 49.7514C50.4348 49.7212 50.4521 49.6909 50.4737 49.6607C50.5039 49.6175 50.5385 49.5829 50.4823 49.6434C50.5342 49.5872 50.5817 49.531 50.6379 49.4791C50.6682 49.4532 50.6941 49.4273 50.7244 49.4014C50.8238 49.3192 50.6422 49.4532 50.7503 49.3841C50.8195 49.3408 50.8843 49.2976 50.9534 49.2587C50.9837 49.2414 51.014 49.2285 51.0442 49.2112C51.0658 49.2025 51.2041 49.142 51.0961 49.1852C51.3338 49.0858 51.5326 48.8524 51.4418 48.5758C51.3684 48.3468 51.0874 48.122 50.8324 48.2301L50.8411 48.2257Z" fill="#313131"/>
<path d="M48.1836 55.6511C50.2452 55.18 52.3025 54.7089 54.3642 54.2421C54.6537 54.1773 54.939 54.1124 55.2286 54.0433L54.5975 53.5635C54.5889 54.1946 54.537 54.8385 54.429 55.4566C54.3555 55.8802 54.2518 56.3599 54.0703 56.7057C53.8239 57.1811 53.4133 57.5831 52.9552 57.8554C52.0518 58.3956 50.954 58.3049 50.0723 57.7689C49.7828 57.5917 49.4543 57.2848 49.2814 57.0558C49.1863 56.9261 49.0999 56.7878 49.0178 56.6495C48.9745 56.5674 48.9313 56.4896 48.8924 56.4031C48.8794 56.3772 48.8665 56.3513 48.8535 56.321C48.7973 56.2 48.8449 56.3124 48.8189 56.2432C48.7152 55.9709 48.6288 55.6943 48.5769 55.4047C48.5683 55.3572 48.5596 55.3097 48.551 55.2621C48.525 55.1152 48.5553 55.3658 48.551 55.2664C48.551 55.2319 48.5423 55.2016 48.5423 55.167C48.4991 54.5317 47.505 54.5274 47.5482 55.167C47.6347 56.468 48.3262 57.7646 49.3981 58.508C50.3922 59.1995 51.7709 59.4286 52.899 58.9748C54.1048 58.4864 54.9649 57.488 55.2761 56.2303C55.4879 55.3658 55.5787 54.4496 55.5873 53.5549C55.5873 53.2221 55.2675 53.006 54.9563 53.0751C52.8946 53.5463 50.8373 54.0174 48.7757 54.4841C48.4861 54.549 48.2009 54.6138 47.9113 54.683C47.2889 54.8256 47.5526 55.7851 48.1749 55.6425L48.1836 55.6511Z" fill="#313131"/>
<path d="M54.5675 43.4975C56.2704 41.8508 59.0365 41.4877 61.1068 42.6331C61.6686 42.9442 62.17 42.0842 61.6081 41.773C59.1445 40.4072 55.89 40.8307 53.863 42.7886C53.4005 43.2338 54.105 43.9383 54.5675 43.4931V43.4975Z" fill="#313131"/>
<path d="M40.5158 44.4526C42.4521 43.2641 44.9545 43.0437 47.0464 43.9513C47.2928 44.0593 47.578 44.0248 47.725 43.7741C47.846 43.5623 47.7941 43.1992 47.5478 43.0955C45.1231 42.0453 42.2749 42.2095 40.0101 43.5969C39.4655 43.9297 39.9626 44.7898 40.5115 44.457L40.5158 44.4526Z" fill="#313131"/>
<path d="M55.7207 47.3182C55.6775 48.55 56.3474 49.5786 57.2162 49.6089C58.0849 49.6391 58.8283 48.6667 58.8715 47.4305C58.9147 46.1988 58.2448 45.1701 57.3761 45.1398C56.5073 45.1096 55.7639 46.0821 55.7207 47.3138V47.3182Z" fill="#313131"/>
<path d="M43.7871 47.7591C43.7439 48.9909 44.4138 50.0195 45.2826 50.0498C46.1513 50.08 46.8947 49.1076 46.9379 47.8715C46.9812 46.6397 46.3112 45.611 45.4425 45.5808C44.5738 45.5505 43.8304 46.523 43.7871 47.7548V47.7591Z" fill="#313131"/>
<path d="M53.3474 87.6041C53.9847 87.6041 54.5014 87.0875 54.5014 86.4501C54.5014 85.8128 53.9847 85.2961 53.3474 85.2961C52.71 85.2961 52.1934 85.8128 52.1934 86.4501C52.1934 87.0875 52.71 87.6041 53.3474 87.6041Z" fill="white"/>
<path d="M53.3473 88.1011C52.4397 88.1011 51.6963 87.3621 51.6963 86.4501C51.6963 85.5381 52.4354 84.7991 53.3473 84.7991C54.2593 84.7991 54.9984 85.5381 54.9984 86.4501C54.9984 87.3621 54.2593 88.1011 53.3473 88.1011ZM53.3473 85.7932C52.9886 85.7932 52.6947 86.0871 52.6947 86.4501C52.6947 86.8132 52.9886 87.1071 53.3473 87.1071C53.7061 87.1071 54.0043 86.8132 54.0043 86.4501C54.0043 86.0871 53.7104 85.7932 53.3473 85.7932Z" fill="#313131"/>
<path d="M53.3474 96.1403C53.9847 96.1403 54.5014 95.6236 54.5014 94.9863C54.5014 94.3489 53.9847 93.8323 53.3474 93.8323C52.71 93.8323 52.1934 94.3489 52.1934 94.9863C52.1934 95.6236 52.71 96.1403 53.3474 96.1403Z" fill="white"/>
<path d="M53.3473 96.6329C52.4397 96.6329 51.6963 95.8938 51.6963 94.9818C51.6963 94.0699 52.4354 93.3308 53.3473 93.3308C54.2593 93.3308 54.9984 94.0699 54.9984 94.9818C54.9984 95.8938 54.2593 96.6329 53.3473 96.6329ZM53.3473 94.3292C52.9886 94.3292 52.6947 94.6231 52.6947 94.9862C52.6947 95.3492 52.9886 95.6431 53.3473 95.6431C53.7061 95.6431 54.0043 95.3492 54.0043 94.9862C54.0043 94.6231 53.7104 94.3292 53.3473 94.3292Z" fill="#313131"/>
<path d="M53.3474 104.672C53.9847 104.672 54.5014 104.155 54.5014 103.518C54.5014 102.881 53.9847 102.364 53.3474 102.364C52.71 102.364 52.1934 102.881 52.1934 103.518C52.1934 104.155 52.71 104.672 53.3474 104.672Z" fill="white"/>
<path d="M53.3473 105.169C52.4397 105.169 51.6963 104.43 51.6963 103.518C51.6963 102.606 52.4354 101.867 53.3473 101.867C54.2593 101.867 54.9984 102.606 54.9984 103.518C54.9984 104.43 54.2593 105.169 53.3473 105.169ZM53.3473 102.865C52.9886 102.865 52.6947 103.159 52.6947 103.518C52.6947 103.877 52.9886 104.175 53.3473 104.175C53.7061 104.175 54.0043 103.881 54.0043 103.518C54.0043 103.155 53.7104 102.865 53.3473 102.865Z" fill="#313131"/>
<path d="M53.8492 61.5162C53.6288 61.5162 53.4473 61.3347 53.4473 61.1142C53.4473 60.8938 53.6288 60.7123 53.8492 60.7123C58.4782 60.7123 62.4545 58.0845 64.4858 53.6759C64.9051 52.7726 65.0909 51.221 65.2725 49.7213C65.441 48.3209 65.6009 46.9983 65.9467 46.1037C66.0245 45.8962 66.2579 45.7925 66.4653 45.8746C66.6728 45.9524 66.7765 46.1858 66.6944 46.3933C66.3875 47.1928 66.2276 48.5284 66.0677 49.8163C65.8775 51.3766 65.6831 52.9931 65.2119 54.0087C63.0423 58.7068 58.7937 61.5119 53.8449 61.5119L53.8492 61.5162Z" fill="#313131"/>
<path d="M52.0421 60.3059C50.672 60.2454 48.9907 60.7467 49.1203 61.9483C49.2587 63.2017 50.6504 63.34 51.6228 63.2017C52.8157 63.0331 55.2361 61.9569 53.4554 60.6776C53.1528 60.4615 52.6255 60.3318 52.0421 60.3059Z" fill="#838383"/>
<path d="M51.0261 63.513C49.7554 63.513 48.9645 62.9554 48.8564 61.9786C48.8132 61.581 48.9299 61.2136 49.2022 60.9111C49.7813 60.2628 50.9353 60.0337 51.8257 60.0337C51.9035 60.0337 51.9813 60.0337 52.0591 60.038C52.729 60.0683 53.2822 60.2152 53.6193 60.4573C54.3584 60.9889 54.4189 61.4946 54.3368 61.8274C54.0991 62.7998 52.4048 63.3574 51.6701 63.4654C51.454 63.4957 51.2422 63.513 51.0304 63.513H51.0261ZM51.8214 60.5696C50.8532 60.5696 49.9802 60.8419 49.5998 61.2698C49.4313 61.46 49.3621 61.6718 49.388 61.9224C49.4831 62.7955 50.3302 62.977 51.0261 62.977C51.212 62.977 51.3978 62.9641 51.588 62.9381C52.4005 62.8214 53.6669 62.2855 53.8095 61.7063C53.87 61.4557 53.7015 61.1877 53.2995 60.8981C53.0532 60.7209 52.5777 60.6042 52.0288 60.5783C51.9597 60.5783 51.8905 60.574 51.8214 60.574V60.5696Z" fill="#313131"/>
<path d="M69.1281 42.5034C69.1281 42.5034 69.0935 42.5034 69.0762 42.5034C68.4106 42.4732 67.8963 41.9113 67.9222 41.2457C68.2291 34.1834 67.0838 28.5993 64.322 23.6721C64.322 23.6721 64.3176 23.6635 64.3133 23.6592C63.557 22.2718 62.1566 20.772 60.8297 19.9292C60.8211 19.9249 60.8168 19.9206 60.8081 19.9163C59.3732 18.9611 57.3937 18.5721 55.466 18.2998C55.4574 18.2998 55.4487 18.2998 55.4401 18.2998C51.4379 17.6342 46.891 17.2409 43.4852 19.3803C41.7089 20.4911 39.9498 22.1681 37.9573 24.6619C36.9373 26.0234 36.1204 27.8473 35.5283 30.0731C35.5283 30.0818 35.5283 30.0861 35.524 30.0947C35.0313 31.8279 34.7417 33.4962 34.5991 35.506C34.6034 36.2105 34.746 37.0662 34.88 37.8918C35.0442 38.9031 35.2042 39.8583 35.1523 40.6838C35.1134 41.3494 34.5386 41.8551 33.873 41.8162C33.2074 41.7773 32.7017 41.2025 32.7406 40.5369C32.7752 39.9793 32.6325 39.1149 32.4942 38.2808C32.3386 37.3429 32.1787 36.3747 32.1787 35.4628C32.1787 35.4325 32.1787 35.4066 32.1787 35.3763C32.3343 33.2066 32.6541 31.3222 33.1944 29.4378C33.8686 26.9051 34.8281 24.8045 36.034 23.1924C36.0426 23.1838 36.0513 23.1708 36.0556 23.1621C38.2296 20.4436 40.1832 18.5894 42.1973 17.3317C46.2773 14.7644 51.3687 15.1706 55.8161 15.9097C58.0161 16.2252 60.3024 16.6834 62.1307 17.8979C63.7903 18.9568 65.4716 20.7591 66.4225 22.4965C69.4134 27.83 70.6538 33.8247 70.3253 41.3494C70.2951 41.9977 69.7634 42.5034 69.1195 42.5034H69.1281Z" fill="#D9D9D9"/>
<path d="M69.1286 42.7714C69.1286 42.7714 69.0854 42.7714 69.0638 42.7714C68.6705 42.7541 68.3074 42.5855 68.0395 42.296C67.7715 42.0064 67.6375 41.6304 67.6548 41.2371C67.9617 34.2267 66.825 28.6858 64.0891 23.8061L64.0805 23.7889C63.3457 22.4404 61.9799 20.9795 60.692 20.1583L60.666 20.141C59.2786 19.2161 57.3337 18.8358 55.4363 18.5678C55.4277 18.5678 55.4147 18.5678 55.4017 18.5635C53.2277 18.2004 51.5767 18.0405 50.051 18.0405C47.4146 18.0405 45.314 18.5548 43.6371 19.6094C41.8866 20.7029 40.1492 22.3626 38.174 24.8305C37.1799 26.1574 36.3803 27.951 35.7925 30.1466L35.7839 30.1769C35.2955 31.8841 35.0145 33.5308 34.8676 35.519C34.8762 36.2062 35.0102 37.0403 35.1442 37.8529C35.3127 38.8772 35.4727 39.8454 35.4208 40.7054C35.3733 41.5093 34.6774 42.136 33.8605 42.0885C33.4672 42.0626 33.1085 41.8897 32.8448 41.5958C32.5855 41.3019 32.4515 40.9215 32.4775 40.5282C32.5077 40.0009 32.3694 39.1538 32.2354 38.3326C32.0798 37.3861 31.9199 36.405 31.9199 35.4714C31.9199 35.4368 31.9199 35.4023 31.9199 35.3677C32.0755 33.1807 32.3997 31.2747 32.9443 29.3773C33.6271 26.8186 34.5996 24.6835 35.8271 23.0455L35.8573 23.0109C38.0529 20.2664 40.0238 18.3949 42.0681 17.1199C44.2292 15.7584 46.8354 15.0972 50.0337 15.0972C52.2293 15.0972 54.4163 15.4213 55.8728 15.6634C58.0944 15.9832 60.4153 16.45 62.2911 17.6947C63.9811 18.7753 65.7012 20.6165 66.6694 22.3885C69.6862 27.7652 70.9353 33.8031 70.6068 41.384C70.5722 42.1749 69.9239 42.793 69.133 42.793L69.1286 42.7714ZM50.0424 17.4916C51.5983 17.4916 53.2753 17.6558 55.4839 18.0232H55.5012C57.4634 18.3085 59.4775 18.7018 60.9556 19.6872L60.9729 19.7002C62.3343 20.5646 63.7693 22.1032 64.5472 23.5295C67.3436 28.5129 68.4976 34.1445 68.1864 41.2587C68.1735 41.5093 68.2642 41.7471 68.4328 41.9329C68.6013 42.1188 68.8347 42.2268 69.0854 42.2355C69.0984 42.2355 69.1114 42.2355 69.1286 42.2355C69.63 42.2355 70.0449 41.8421 70.0665 41.3365C70.3907 33.8593 69.1632 27.9164 66.1983 22.6262C65.269 20.9233 63.6223 19.1599 61.9972 18.1226C60.2079 16.934 57.9561 16.4846 55.7907 16.1734C54.3472 15.9313 52.1904 15.6158 50.0337 15.6158C46.9391 15.6158 44.428 16.2512 42.3534 17.5564C40.3609 18.8012 38.4333 20.6337 36.2766 23.3307L36.2593 23.3523C35.0707 24.9342 34.1328 27.0045 33.4629 29.5026C32.9313 31.3698 32.6115 33.2412 32.4559 35.3893C32.4559 35.4109 32.4559 35.4325 32.4559 35.4541C32.4559 36.3445 32.6115 37.304 32.767 38.2289C32.9054 39.0803 33.0523 39.9577 33.0134 40.5412C32.9961 40.7919 33.0826 41.0339 33.2468 41.2198C33.411 41.4056 33.6401 41.518 33.8908 41.5353C33.9081 41.5353 33.9297 41.5353 33.947 41.5353C34.444 41.5353 34.8546 41.1463 34.8849 40.6536C34.9324 39.854 34.7768 38.9161 34.6169 37.922C34.4786 37.0879 34.336 36.2235 34.3316 35.4973C34.3316 35.4887 34.3316 35.4844 34.3316 35.4757C34.4786 33.4444 34.7682 31.7588 35.2695 30.0083V29.991C35.8789 27.7306 36.7088 25.8764 37.7504 24.4847C39.7688 21.9606 41.5495 20.2664 43.3518 19.1383C45.1152 18.0275 47.3065 17.4873 50.051 17.4873L50.0424 17.4916Z" fill="#313131"/>
<path d="M65.4675 41.384C66.185 40.5282 68.0132 40.5282 68.9857 40.7573C70.6022 41.0944 71.579 42.2786 71.9463 43.7568C72.439 45.7795 71.9809 47.8066 71.3542 49.6867C70.8528 51.2383 70.1916 52.7294 68.9338 53.7883C67.97 54.5879 66.7944 54.7694 65.6145 54.8731C65.299 54.8991 64.5167 55.0504 64.2617 54.8343C63.8381 54.5533 65.4675 41.384 65.4675 41.384Z" fill="#D9D9D9"/>
<path d="M64.7665 55.2189C64.4553 55.2189 64.2436 55.167 64.1009 55.0503C63.9021 54.9164 63.7249 54.6743 64.4381 47.9751C64.7881 44.6817 65.1944 41.384 65.1987 41.3494C65.2031 41.2975 65.2247 41.25 65.2593 41.2111C65.8816 40.4677 67.0961 40.3596 67.7661 40.3596C68.2156 40.3596 68.6737 40.4072 69.0497 40.4979C70.6316 40.8264 71.7856 41.989 72.2091 43.6919C72.7451 45.8875 72.1702 48.0961 71.6084 49.7731C71.1459 51.2037 70.489 52.8245 69.1059 53.9958C68.0556 54.8645 66.7633 55.0417 65.6353 55.1411C65.5834 55.1454 65.5186 55.1541 65.4408 55.1627C65.242 55.1886 64.9999 55.2189 64.7665 55.2189ZM64.4726 54.6484C64.5159 54.6614 64.6066 54.683 64.7665 54.683C64.9697 54.683 65.1944 54.657 65.3759 54.6311C65.4581 54.6225 65.5315 54.6138 65.5877 54.6052C66.6855 54.5101 67.8309 54.3502 68.7601 53.5808C70.0395 52.5003 70.6575 50.9617 71.0984 49.6002C71.6689 47.8887 72.1875 45.8659 71.6862 43.8173C71.3102 42.3046 70.329 41.3105 68.9287 41.0166C68.5829 40.9345 68.1723 40.8912 67.7617 40.8912C66.8282 40.8912 66.0891 41.1117 65.7174 41.4963C65.1382 46.1944 64.3084 53.7235 64.4683 54.6441L64.4726 54.6484Z" fill="#313131"/>
<path d="M36.9982 41.384C36.2807 40.5282 34.4525 40.5282 33.48 40.7573C31.8636 41.0944 30.8868 42.2786 30.5194 43.7568C30.0267 45.7795 30.4848 47.8066 31.1115 49.6867C31.6129 51.2383 32.2742 52.7294 33.5319 53.7883C34.4957 54.5879 35.6713 54.7694 36.8512 54.8731C37.1668 54.8991 37.9491 55.0504 38.2041 54.8343C38.6276 54.5533 36.9982 41.384 36.9982 41.384Z" fill="#D9D9D9"/>
<path d="M37.698 55.2188C37.4646 55.2188 37.2182 55.1886 37.0238 55.1626C36.9503 55.154 36.8811 55.1454 36.8293 55.141C35.7012 55.0416 34.4089 54.8644 33.3586 53.9957C31.9713 52.8244 31.3143 51.1993 30.8518 49.7687C30.29 48.0961 29.7151 45.8875 30.2554 43.6919C30.679 41.989 31.8329 40.8263 33.4235 40.4935C33.7908 40.4071 34.2447 40.3552 34.6985 40.3552C35.3684 40.3552 36.5786 40.4676 37.2053 41.2067C37.2399 41.2456 37.2615 41.2931 37.2658 41.345C37.2658 41.3796 37.6764 44.6773 38.0265 47.9707C38.7396 54.6699 38.5667 54.9076 38.3636 55.0459C38.221 55.1583 38.0049 55.2145 37.698 55.2145V55.2188ZM34.6985 40.8955C34.2879 40.8955 33.8773 40.9387 33.5402 41.0208C32.1312 41.3147 31.1501 42.3088 30.774 43.8215C30.2727 45.8702 30.7913 47.8929 31.3618 49.6001C31.8027 50.9659 32.4207 52.5002 33.7044 53.5851C34.6293 54.3544 35.779 54.51 36.8768 54.6094C36.933 54.6137 37.0065 54.6224 37.0886 54.6354C37.2701 54.657 37.4992 54.6872 37.698 54.6872C37.8622 54.6872 37.9487 54.6699 37.9919 54.6526C38.1518 53.732 37.322 46.203 36.7428 41.5049C36.3711 41.1202 35.632 40.8998 34.6985 40.8998V40.8955Z" fill="#313131"/>
</g>
<path d="M51.6099 103.224C23.1533 103.224 0 80.0707 0 51.6142C0 23.1577 23.1533 0 51.6099 0C80.0664 0 103.22 23.1533 103.22 51.6099C103.22 80.0664 80.0664 103.22 51.6099 103.22V103.224ZM51.6099 1.29662C23.8665 1.29662 1.29662 23.8665 1.29662 51.6099C1.29662 79.3532 23.8665 101.923 51.6099 101.923C79.3532 101.923 101.923 79.3532 101.923 51.6099C101.923 23.8665 79.3532 1.29662 51.6099 1.29662Z" fill="#313131"/>
</svg>
