<svg width="516" height="53" viewBox="0 0 516 53" fill="none" xmlns="http://www.w3.org/2000/svg">
<rect x="0.375" y="0.375" width="515.25" height="52.25" rx="4.625" fill="#F8F9FF" stroke="#D9D9D9" stroke-width="0.75"/>
<path d="M223.108 23.008H226.636V27.352H223.108V23.008ZM217.228 21.736H232.636V24.472H217.228V21.736ZM217.228 17.536H232.468V20.32H220.732V23.2H217.228V17.536ZM214.756 25.696H234.988V28.456H214.756V25.696ZM217.036 29.44H232.564V35.392H220.54V37.144H217.06V32.968H229.084V32.032H217.036V29.44ZM217.06 36.448H233.14V39.088H217.06V36.448ZM242.834 18.328C243.986 18.328 245.002 18.656 245.882 19.312C246.778 19.968 247.482 20.896 247.994 22.096C248.522 23.296 248.786 24.72 248.786 26.368C248.786 28.016 248.522 29.448 247.994 30.664C247.482 31.864 246.778 32.792 245.882 33.448C245.002 34.104 243.986 34.432 242.834 34.432C241.682 34.432 240.658 34.104 239.762 33.448C238.882 32.792 238.178 31.864 237.65 30.664C237.138 29.448 236.882 28.016 236.882 26.368C236.882 24.72 237.138 23.296 237.65 22.096C238.178 20.896 238.882 19.968 239.762 19.312C240.658 18.656 241.682 18.328 242.834 18.328ZM242.834 21.544C242.338 21.544 241.898 21.72 241.514 22.072C241.13 22.424 240.826 22.96 240.602 23.68C240.394 24.384 240.29 25.272 240.29 26.344C240.29 27.432 240.394 28.336 240.602 29.056C240.826 29.776 241.13 30.32 241.514 30.688C241.898 31.04 242.346 31.216 242.858 31.216C243.354 31.216 243.794 31.04 244.178 30.688C244.562 30.32 244.858 29.776 245.066 29.056C245.29 28.336 245.402 27.432 245.402 26.344C245.402 25.272 245.29 24.384 245.066 23.68C244.858 22.96 244.562 22.424 244.178 22.072C243.794 21.72 243.346 21.544 242.834 21.544ZM250.898 16.84H254.45V39.208H250.898V16.84ZM253.682 25.12H257.57V28.024H253.682V25.12ZM272.976 16.792H276.528V39.16H272.976V16.792ZM275.616 25.216H279.504V28.096H275.616V25.216ZM267.072 19.096H270.528C270.528 21.368 270.216 23.512 269.592 25.528C268.968 27.528 267.936 29.368 266.496 31.048C265.056 32.712 263.08 34.176 260.568 35.44L258.6 32.752C260.536 31.744 262.128 30.624 263.376 29.392C264.624 28.144 265.552 26.728 266.16 25.144C266.768 23.544 267.072 21.736 267.072 19.72V19.096ZM259.872 19.096H268.872V21.928H259.872V19.096ZM296.158 16.816H299.71V39.184H296.158V16.816ZM289.558 19.12H293.062C293.062 20.848 292.902 22.496 292.582 24.064C292.262 25.616 291.726 27.08 290.974 28.456C290.222 29.832 289.182 31.112 287.854 32.296C286.526 33.48 284.854 34.56 282.838 35.536L280.99 32.728C283.134 31.704 284.83 30.576 286.078 29.344C287.326 28.096 288.214 26.688 288.742 25.12C289.286 23.536 289.558 21.752 289.558 19.768V19.12ZM282.238 19.12H291.238V21.904H282.238V19.12Z" fill="#313131"/>
</svg>
