<svg width="28" height="22" viewBox="0 0 28 22" fill="none" xmlns="http://www.w3.org/2000/svg">
<path d="M28.0001 19.2857C27.8069 19.7395 27.675 20.2339 27.4062 20.6382C26.7683 21.5964 25.8193 21.9998 24.6729 21.999C18.6123 21.9948 12.5526 21.9973 6.49206 21.9965C5.40786 21.9965 4.32284 22.0031 3.23864 21.9948C1.70981 21.9833 0.430676 21.0061 0.0855913 19.5866C0.0283537 19.351 0.00346772 19.103 0.00346772 18.8599C0.000149598 14.4551 -0.00150946 10.0503 0.00180866 5.64551C0.00346772 3.93667 1.39957 2.52628 3.11919 2.50644C4.47713 2.49073 5.83507 2.50313 7.19301 2.5023C7.29256 2.5023 7.3921 2.5023 7.51321 2.5023C7.5381 2.3105 7.54557 2.12945 7.58621 1.95666C7.87489 0.756258 8.80894 0.0163381 10.1096 0.00972432C12.6978 -0.00433001 15.2859 -0.00184984 17.8741 0.0088976C19.125 0.013858 20.0425 0.709961 20.3593 1.86076C20.4141 2.06 20.4315 2.26917 20.4705 2.50313C20.5634 2.50313 20.6613 2.50313 20.7592 2.50313C22.0715 2.50313 23.3838 2.50313 24.6961 2.50313C26.3817 2.50478 27.5879 3.46874 27.9545 5.10484C27.9595 5.12798 27.9844 5.14783 27.9993 5.16932V19.2857H28.0001ZM13.9943 20.5712C17.5207 20.5712 21.047 20.572 24.5734 20.5687C24.8081 20.5687 25.052 20.5654 25.2776 20.5084C26.1337 20.2926 26.609 19.6015 26.6099 18.597C26.6115 14.3468 26.6115 10.0966 26.6082 5.84641C26.6082 5.6389 26.6007 5.42478 26.5493 5.22554C26.3386 4.39964 25.6683 3.92014 24.7359 3.91766C23.096 3.91435 21.4551 3.91766 19.8152 3.91518C19.3224 3.91435 19.0354 3.625 19.0321 3.14054C19.0304 2.94047 19.0337 2.74123 19.0321 2.54116C19.0238 1.79628 18.6273 1.40441 17.8757 1.40358C16.5999 1.40193 15.3241 1.40358 14.0483 1.40358C12.7177 1.40358 11.3871 1.40028 10.0574 1.40524C9.43192 1.40772 9.03292 1.79876 9.01301 2.41798C9.00637 2.62631 9.01135 2.83547 9.00969 3.04463C9.00554 3.63078 8.72433 3.91518 8.14366 3.916C6.53105 3.91683 4.91761 3.91435 3.305 3.91683C2.13205 3.91931 1.41865 4.63443 1.41865 5.80259C1.41865 8.86313 1.41865 11.9237 1.41865 14.9842C1.41865 16.2557 1.41865 17.5272 1.41865 18.7987C1.41865 19.3907 1.64843 19.871 2.12209 20.2323C2.49704 20.5183 2.9342 20.5704 3.38713 20.5704C6.92259 20.5687 10.458 20.5704 13.9935 20.5704L13.9943 20.5712Z" fill="#B4B4B4"/>
<path d="M13.9671 5.71784C17.5469 5.73347 20.4776 8.67502 20.4431 12.2429C20.4077 15.8857 17.5263 18.7186 13.9211 18.7178C10.3199 18.7178 7.42128 15.7647 7.44349 12.196C7.46569 8.60671 10.3907 5.7022 13.9671 5.71784ZM18.997 12.2882C19.0077 9.4528 16.7786 7.1919 13.9589 7.17873C11.1663 7.16557 8.90433 9.42235 8.89282 12.233C8.8813 15.0396 11.1096 17.3087 13.9334 17.3063C16.7802 17.3038 19.0349 15.0083 18.997 12.2882Z" fill="#B4B4B4"/>
<path d="M25.1602 7.20834C25.1564 8.03991 24.4941 8.69963 23.6644 8.69677C22.8462 8.6939 22.1649 8.01795 22.1602 7.20165C22.1554 6.37963 22.8624 5.68267 23.6863 5.69699C24.5179 5.71132 25.163 6.37295 25.1592 7.20834H25.1602Z" fill="#B4B4B4"/>
</svg>
