<svg width="26" height="39" viewBox="0 0 26 39" fill="none" xmlns="http://www.w3.org/2000/svg">
<path d="M6.14078 30.05H6.78078V30.52C6.78078 32.31 6.03078 34.12 4.71078 34.91L4.21078 34.28C5.44078 33.56 6.14078 31.99 6.14078 30.52V30.05ZM6.29078 30.05H6.93078V30.52C6.93078 31.95 7.66078 33.43 8.87078 34.09L8.40078 34.71C7.07078 33.97 6.29078 32.26 6.29078 30.52V30.05ZM4.44078 29.42H8.63078V30.1H4.44078V29.42ZM6.14078 28.06H6.94078V29.93H6.14078V28.06ZM11.2108 27.74H12.0008V36.78H11.2108V27.74ZM9.78078 31.38H11.5208V32.08H9.78078V31.38ZM9.24078 27.93H10.0208V36.33H9.24078V27.93ZM14.02 32.03H14.75C16.7 32.03 17.77 31.99 19.04 31.78L19.13 32.44C17.82 32.67 16.72 32.7 14.75 32.7H14.02V32.03ZM14.02 28.4H18.32V29.07H14.84V32.37H14.02V28.4ZM14.57 30.19H18.07V30.85H14.57V30.19ZM20.07 27.75H20.91V33.34H20.07V27.75ZM17.92 33.47C19.8 33.47 20.95 34.07 20.95 35.11C20.95 36.16 19.8 36.76 17.92 36.76C16.03 36.76 14.88 36.16 14.88 35.11C14.88 34.07 16.03 33.47 17.92 33.47ZM17.92 34.13C16.54 34.13 15.71 34.49 15.71 35.11C15.71 35.75 16.54 36.11 17.92 36.11C19.29 36.11 20.12 35.75 20.12 35.11C20.12 34.49 19.29 34.13 17.92 34.13Z" fill="#808080"/>
<path d="M25.9875 14.4023C25.8746 14.8665 25.7994 15.3565 25.6238 15.8078C24.7837 17.9223 23.2414 19.0957 21.0345 19.3149C20.6207 19.3536 20.2069 19.3407 19.7931 19.3407C16.5455 19.3407 13.2978 19.3407 10.0502 19.3407C9.86207 19.3407 9.72414 19.4051 9.58621 19.5341C8.90909 20.2432 8.21944 20.9524 7.52978 21.6615C7.09091 22.1128 6.68965 22.1128 6.25078 21.6615C5.47335 20.875 4.70846 20.0756 3.93103 19.2891C3.83072 19.1859 3.69279 19.0957 3.55486 19.0441C1.47335 18.3221 0.031348 16.3364 0.0188088 14.08C-0.00626959 11.1918 -0.00626959 8.30359 0.0188088 5.41538C0.0438871 2.82374 1.74922 0.709158 4.21944 0.128938C4.59561 0.0386813 4.99686 0 5.39812 0C10.4639 0 15.5298 0 20.5956 0C23.1787 0 25.2853 1.72777 25.8746 4.31941C25.9248 4.52571 25.9498 4.74491 26 4.95121V14.4023H25.9875ZM6.89028 20.1143C7.52978 19.4567 8.1442 18.8378 8.74608 18.1931C9.02194 17.8966 9.31034 17.7805 9.7116 17.7805C13.2978 17.7805 16.884 17.7805 20.4702 17.7805C22.815 17.7805 24.4702 16.0914 24.4702 13.6803C24.4702 10.9726 24.4702 8.25202 24.4702 5.54432C24.4702 3.27502 22.8025 1.57304 20.5956 1.56015C15.5298 1.56015 10.4639 1.56015 5.39812 1.56015C3.20376 1.56015 1.53605 3.27502 1.53605 5.51854C1.53605 8.30359 1.53605 11.1015 1.53605 13.8866C1.53605 15.6401 2.60188 17.0971 4.21944 17.6129C4.44514 17.6903 4.68339 17.8321 4.85893 18.0126C5.54859 18.6831 6.20063 19.3793 6.89028 20.0885V20.1143Z" fill="#313131"/>
<path d="M18.4388 7.53027H7.54223C7.1198 7.53027 6.77734 7.87937 6.77734 8.31C6.77734 8.74064 7.1198 9.08973 7.54223 9.08973H18.4388C18.8612 9.08973 19.2037 8.74064 19.2037 8.31C19.2037 7.87937 18.8612 7.53027 18.4388 7.53027Z" fill="#313131"/>
<path d="M18.4388 10.3408H7.54223C7.1198 10.3408 6.77734 10.6899 6.77734 11.1206C6.77734 11.5512 7.1198 11.9003 7.54223 11.9003H18.4388C18.8612 11.9003 19.2037 11.5512 19.2037 11.1206C19.2037 10.6899 18.8612 10.3408 18.4388 10.3408Z" fill="#313131"/>
</svg>
