<svg width="10" height="14" viewBox="0 0 10 14" fill="none" xmlns="http://www.w3.org/2000/svg">
<path d="M9.94475 4.38606C9.53762 1.8647 7.46251 0.0201589 5.01079 0H4.99643L4.98243 0.00149325C4.90524 0.00933284 4.82841 0.0153058 4.74728 0.0216522C4.56885 0.0354648 4.38467 0.0496507 4.19978 0.0851155C2.42911 0.424831 1.16035 1.4507 0.428317 3.13359C-0.00860569 4.13818 -0.111643 5.13493 0.120999 6.09546C0.365489 7.10415 0.818567 8.02027 1.22928 8.78369C2.05753 10.3232 3.0757 11.8814 4.4335 13.6879C4.58285 13.8865 4.79108 14 5.00613 14C5.00936 14 5.01295 14 5.01654 14C5.23805 13.9963 5.44125 13.8787 5.58881 13.6685C5.73601 13.4591 5.88392 13.25 6.03148 13.041C6.55456 12.3011 7.09524 11.5358 7.60468 10.7641C8.46309 9.46461 9.10537 8.26553 9.5685 7.09855C9.96342 6.10367 10.083 5.24169 9.94475 4.38606ZM8.29076 6.52477C7.94036 7.41251 7.47759 8.30996 6.91573 9.19135C6.44865 9.92416 5.95285 10.657 5.47321 11.3659C5.31703 11.597 5.15655 11.8337 4.99751 12.0703C4.98171 12.0483 4.96628 12.0267 4.95048 12.0046C4.7602 11.7385 4.58069 11.4872 4.40298 11.2285C3.63146 10.1034 2.74648 8.75196 2.03491 7.2602C1.81304 6.79542 1.5707 6.2418 1.45474 5.66018C1.33519 5.06026 1.41202 4.43608 1.6899 3.7518C2.26037 2.34702 3.56288 1.4716 5.01726 1.4716C5.16553 1.4716 5.3156 1.48056 5.46603 1.49923C6.99579 1.68738 8.26491 2.9447 8.55248 4.55704C8.66163 5.16927 8.57833 5.7942 8.28969 6.5244L8.29076 6.52477Z" fill="#1E388B"/>
<path d="M5.01442 2.34815C3.44013 2.34815 2.15773 3.66632 2.15522 5.2865C2.15414 6.08763 2.44889 6.83874 2.98526 7.40058C3.52199 7.96316 4.24038 8.27301 5.00796 8.27376H5.01047C6.57578 8.27376 7.851 6.94364 7.85387 5.30703C7.85531 4.52121 7.55912 3.77906 7.01988 3.2176C6.48136 2.65651 5.76943 2.34778 5.01478 2.34778L5.01442 2.34815ZM6.45515 5.32122C6.45371 6.14736 5.80641 6.82007 5.01154 6.82082H5.01011C4.20915 6.82082 3.55574 6.14886 3.55358 5.32234C3.55143 4.48724 4.20232 3.80594 5.00436 3.80333C5.0058 3.80333 5.0076 3.80333 5.00903 3.80333C5.39246 3.80333 5.75399 3.959 6.02648 4.24234C6.30364 4.5298 6.45587 4.91319 6.45515 5.32122Z" fill="#1E388B"/>
</svg>
