<svg width="23" height="22" viewBox="0 0 23 22" fill="none" xmlns="http://www.w3.org/2000/svg">
<g clip-path="url(#clip0_279_2633)">
<path d="M1.22036 20.7924C1.22036 20.6604 1.22036 20.5627 1.22036 20.4649C1.22036 14.2316 1.22036 7.99333 1.22036 1.76C1.22036 0.894667 1.72811 0.234667 2.54344 0.0488889C2.69479 0.0146667 2.86078 0.0146667 3.02189 0.0146667C8.67547 0.00977778 14.329 0.0195556 19.9826 0C21.0567 0 21.7988 0.816444 21.7939 1.82356C21.7793 8.03733 21.7842 14.2511 21.7842 20.46V20.7924C22.0283 20.7924 22.2577 20.7778 22.4823 20.7924C22.7655 20.812 22.9315 20.988 22.9852 21.2667C23.0389 21.5404 22.9217 21.8093 22.6874 21.9267C22.6239 21.9609 22.5458 21.9756 22.4725 21.9853C22.3749 21.9951 22.2724 21.9902 22.1747 21.9902C15.0565 21.9902 7.94314 21.9902 0.824907 21.9902C0.746792 21.9902 0.67356 21.9902 0.595445 21.9902C0.239045 21.9756 0.0046994 21.7507 -0.00506498 21.4036C-0.0148294 21.0662 0.209751 20.8071 0.561269 20.7827C0.771203 20.768 0.98602 20.7827 1.21548 20.7827L1.22036 20.7924ZM20.5587 20.7729C20.5587 20.6751 20.5587 20.592 20.5587 20.5089C20.5587 14.2902 20.5587 8.07156 20.5587 1.85289C20.5587 1.364 20.4171 1.22222 19.9387 1.22222C14.3193 1.22222 8.695 1.22222 3.0756 1.22222C2.5825 1.22222 2.44579 1.35911 2.44579 1.84311C2.44579 8.07156 2.44579 14.2951 2.44579 20.5236C2.44579 20.6018 2.44579 20.6849 2.44579 20.7631H6.01468C6.01468 20.6507 6.01468 20.5578 6.01468 20.4698C6.01468 18.4311 6.01468 16.3924 6.01468 14.3587C6.01468 13.5667 6.51754 13.0436 7.30846 13.0436C10.106 13.0387 12.8986 13.0387 15.6961 13.0436C16.4821 13.0436 16.9898 13.5716 16.9898 14.3587C16.9898 16.4022 16.9898 18.4507 16.9898 20.4942V20.7778H20.5587V20.7729ZM10.8725 20.768V14.2756H7.24499V20.768H10.8725ZM12.1174 14.3V20.768H15.7595V14.3H12.1174Z" fill="#1E388B"/>
<path d="M17.2147 9.71932C17.3661 9.71932 17.5174 9.71932 17.6736 9.71932C18.03 9.71443 18.2644 9.48465 18.279 9.13754C18.2937 8.77087 18.074 8.51176 17.7127 8.4971C17.3758 8.48243 17.0438 8.48243 16.707 8.4971C16.3652 8.51665 16.1504 8.78065 16.1602 9.13265C16.1699 9.46999 16.3994 9.70465 16.7363 9.71443C16.8974 9.71932 17.0585 9.71443 17.2147 9.71443V9.71932ZM11.4879 9.71932C11.649 9.71932 11.8052 9.71932 11.9664 9.71932C12.3081 9.70954 12.5425 9.47976 12.5571 9.15221C12.5718 8.79043 12.3716 8.52643 12.0298 8.50687C11.6832 8.48243 11.3268 8.48732 10.9802 8.50687C10.6384 8.52643 10.4285 8.80021 10.4431 9.15221C10.4578 9.48465 10.6872 9.71443 11.029 9.72421C11.1803 9.72421 11.3317 9.72421 11.4879 9.72421V9.71932ZM5.83921 9.74376C5.83921 9.74376 5.83921 9.7291 5.83921 9.72421C5.97591 9.72421 6.11261 9.72421 6.24932 9.72421C6.57154 9.71443 6.80588 9.50421 6.83518 9.2011C6.86935 8.83932 6.68871 8.54599 6.35184 8.52154C5.9515 8.49221 5.54628 8.50687 5.15082 8.55576C4.86766 8.58999 4.70654 8.82954 4.70654 9.1131C4.70654 9.39665 4.85789 9.62154 5.14106 9.68021C5.37052 9.7291 5.60487 9.7291 5.83921 9.75354V9.74376ZM11.4928 4.55176C11.3463 4.55176 11.2047 4.55176 11.0583 4.55176C10.7165 4.55665 10.4822 4.77665 10.4578 5.1091C10.4334 5.43176 10.6384 5.7251 10.9655 5.75443C11.317 5.78376 11.6783 5.78376 12.0347 5.75443C12.3618 5.7251 12.5766 5.42687 12.5473 5.1091C12.518 4.77176 12.2886 4.55176 11.9468 4.54688C11.7955 4.54688 11.6441 4.54688 11.4928 4.54688V4.55176ZM17.2147 4.55176C17.078 4.55176 16.9413 4.55176 16.8046 4.55176C16.4336 4.55176 16.1895 4.78154 16.1748 5.12865C16.1553 5.47087 16.3896 5.74954 16.746 5.7691C17.0634 5.78865 17.3856 5.78865 17.7029 5.7691C18.0447 5.74954 18.2742 5.47576 18.2693 5.14332C18.2595 4.79132 18.0154 4.55665 17.6541 4.55176C17.5076 4.55176 17.3661 4.55176 17.2196 4.55176H17.2147ZM5.80992 4.55176C5.65857 4.55176 5.50722 4.55176 5.35587 4.55176C5.00436 4.55665 4.76513 4.78154 4.74072 5.12376C4.72119 5.45132 4.93112 5.73487 5.25823 5.75932C5.60487 5.78865 5.95638 5.78865 6.30302 5.75932C6.63013 5.73487 6.84982 5.44154 6.8303 5.12376C6.80588 4.78154 6.57154 4.55665 6.22002 4.54688C6.08332 4.54688 5.94662 4.54688 5.80992 4.54688V4.55176Z" fill="white"/>
<path d="M17.2145 9.719C17.0534 9.719 16.8923 9.719 16.7361 9.719C16.3943 9.70433 16.1698 9.47456 16.16 9.13722C16.1502 8.78033 16.365 8.52122 16.7068 8.50167C17.0388 8.48211 17.3757 8.487 17.7125 8.50167C18.0738 8.51633 18.2886 8.77545 18.2789 9.14211C18.2642 9.48922 18.0299 9.71411 17.6735 9.72389C17.5221 9.72389 17.3708 9.72389 17.2145 9.72389V9.719Z" fill="#1E388B"/>
<path d="M11.4879 9.7193C11.3365 9.7193 11.1852 9.7193 11.029 9.7193C10.6872 9.70953 10.4577 9.47975 10.4431 9.1473C10.4285 8.7953 10.6384 8.52153 10.9801 8.50197C11.3268 8.48242 11.6832 8.48242 12.0298 8.50197C12.3765 8.52642 12.5717 8.79042 12.5571 9.1473C12.5424 9.47975 12.3081 9.70953 11.9663 9.71442C11.8052 9.71442 11.649 9.71442 11.4879 9.71442V9.7193Z" fill="#1E388B"/>
<path d="M5.83932 9.74378C5.60498 9.71933 5.36575 9.71933 5.14117 9.67044C4.858 9.61178 4.70177 9.38689 4.70665 9.10333C4.70665 8.82467 4.86777 8.58022 5.15093 8.546C5.54639 8.502 5.95649 8.48733 6.35195 8.51178C6.69371 8.53622 6.86946 8.82955 6.83529 9.19133C6.806 9.49444 6.57165 9.70955 6.24943 9.71444C6.11272 9.71444 5.97602 9.71444 5.83932 9.71444C5.83932 9.71933 5.83932 9.72911 5.83932 9.734V9.74378Z" fill="#1E388B"/>
<path d="M11.4926 4.55176C11.6439 4.55176 11.7953 4.55176 11.9466 4.55176C12.2884 4.56154 12.5178 4.77665 12.5471 5.11398C12.5764 5.43176 12.3616 5.72998 12.0345 5.75931C11.683 5.78865 11.3217 5.78865 10.9653 5.75931C10.6382 5.72998 10.4331 5.43665 10.4575 5.11398C10.4819 4.78154 10.7163 4.56154 11.058 4.55665C11.2045 4.55665 11.3461 4.55665 11.4926 4.55665V4.55176Z" fill="#1E388B"/>
<path d="M17.2144 4.55176C17.3608 4.55176 17.5024 4.55176 17.6489 4.55176C18.0151 4.55665 18.2543 4.79131 18.2641 5.14331C18.2738 5.47576 18.0444 5.74465 17.6977 5.76909C17.3804 5.78865 17.0582 5.78865 16.7408 5.76909C16.3893 5.74954 16.1549 5.47087 16.1696 5.12865C16.1891 4.78154 16.4332 4.55665 16.7994 4.55176C16.9361 4.55176 17.0728 4.55176 17.2095 4.55176H17.2144Z" fill="#1E388B"/>
<path d="M5.80971 4.55176C5.94641 4.55176 6.08312 4.55176 6.21982 4.55176C6.57133 4.55665 6.80568 4.78154 6.83009 5.12865C6.84962 5.44642 6.6348 5.73487 6.30281 5.7642C5.95618 5.79354 5.60466 5.79354 5.25803 5.7642C4.93092 5.73487 4.72098 5.45131 4.74051 5.12865C4.76004 4.78642 4.99927 4.56154 5.35567 4.55665C5.50702 4.55665 5.65836 4.55665 5.80971 4.55665V4.55176Z" fill="#1E388B"/>
</g>
<defs>
<clipPath id="clip0_279_2633">
<rect width="23" height="22" fill="white"/>
</clipPath>
</defs>
</svg>
