<svg width="111" height="37" viewBox="0 0 111 37" fill="none" xmlns="http://www.w3.org/2000/svg">
<rect x="1" y="1" width="109" height="35" rx="4" stroke="#1E388B" stroke-width="2"/>
<path d="M32.1157 14.065H39.6607V15.085H32.1157V14.065ZM31.9207 22.825L31.7707 21.76C34.2157 21.76 37.5007 21.73 40.2907 21.385L40.3657 22.315C37.5307 22.78 34.3057 22.825 31.9207 22.825ZM33.5707 14.83H34.7857V22.045H33.5707V14.83ZM36.9907 14.83H38.2057V22.045H36.9907V14.83ZM41.1157 12.61H42.3757V26.17H41.1157V12.61ZM42.0757 18.025H44.5957V19.075H42.0757V18.025ZM48.7945 13.105C50.8195 13.105 52.3045 14.335 52.3045 16.12C52.3045 17.89 50.8195 19.12 48.7945 19.12C46.7845 19.12 45.2995 17.89 45.2995 16.12C45.2995 14.335 46.7845 13.105 48.7945 13.105ZM48.7945 14.125C47.4895 14.125 46.4995 14.95 46.4995 16.12C46.4995 17.29 47.4895 18.1 48.7945 18.1C50.1145 18.1 51.0895 17.29 51.0895 16.12C51.0895 14.95 50.1145 14.125 48.7945 14.125ZM54.8545 12.61H56.1145V19.555H54.8545V12.61ZM47.3395 20.215H56.1145V23.515H48.5845V25.555H47.3695V22.585H54.8845V21.22H47.3395V20.215ZM47.3695 25H56.5645V25.99H47.3695V25ZM58.0483 23.47H70.3333V24.505H58.0483V23.47ZM63.5383 20.56H64.7833V23.905H63.5383V20.56ZM59.5333 13.615H68.8183V17.725H60.8083V20.44H59.5783V16.72H67.5883V14.62H59.5333V13.615ZM59.5783 19.915H69.1333V20.935H59.5783V19.915ZM73.7017 19.06H85.9567V20.095H73.7017V19.06ZM75.2467 16.765H84.5317V17.77H75.2467V16.765ZM75.2467 13.15H84.4267V14.17H76.4767V17.245H75.2467V13.15ZM79.8067 21.265C82.7017 21.265 84.4567 22.15 84.4567 23.71C84.4567 25.27 82.7017 26.14 79.8067 26.14C76.9117 26.14 75.1567 25.27 75.1567 23.71C75.1567 22.15 76.9117 21.265 79.8067 21.265ZM79.8067 22.225C77.6917 22.225 76.4167 22.765 76.4167 23.71C76.4167 24.64 77.6917 25.165 79.8067 25.165C81.9367 25.165 83.1967 24.64 83.1967 23.71C83.1967 22.765 81.9367 22.225 79.8067 22.225ZM86.7355 20.065H99.0355V21.085H86.7355V20.065ZM88.2955 12.955H97.4455V16.24H89.5555V18.07H88.3255V15.325H96.2305V13.93H88.2955V12.955ZM88.3255 17.665H97.7455V18.64H88.3255V17.665ZM92.2555 18.175H93.5005V20.575H92.2555V18.175ZM88.1005 22.12H97.5355V26.05H96.2905V23.14H88.1005V22.12Z" fill="#1E388B"/>
<g clip-path="url(#clip0_327_1476)">
<path d="M13.9702 21.5583C13.9778 21.5489 13.989 21.5405 13.9931 21.5295C14.1073 21.2335 14.3423 21.092 14.6281 21.1479C14.8797 21.1973 15.0562 21.43 15.0584 21.7251C15.0613 22.129 15.059 22.5333 15.059 22.9373C15.059 23.2463 15.059 23.5552 15.059 23.8739H25.8817C25.8817 23.8251 25.8817 23.7789 25.8817 23.733C25.8817 23.0666 25.8798 22.4005 25.8824 21.7341C25.8836 21.3502 26.1495 21.102 26.5056 21.1443C26.7527 21.1737 26.9661 21.3938 26.9674 21.6462C26.9718 22.5918 26.9724 23.5374 26.9664 24.4831C26.9651 24.6873 26.8475 24.835 26.6716 24.9326C26.636 24.9523 26.6001 24.9707 26.5641 24.9898H14.3766C14.1839 24.9106 14.0484 24.7729 13.9702 24.5774C13.9702 23.571 13.9702 22.5647 13.9702 21.5583Z" fill="#1E388B"/>
<path d="M13.9702 24.5774C14.0484 24.7729 14.1839 24.9106 14.3766 24.9904H13.9702V24.5774Z" fill="white"/>
<path d="M19.9248 19.7647V19.6015C19.9248 17.2193 19.9241 17.05 19.9264 14.6675C19.9264 14.5615 19.934 14.4503 19.9658 14.3508C20.0437 14.1068 20.2914 13.962 20.5468 13.9946C20.7834 14.0247 20.9777 14.2273 21.0047 14.4752C21.0126 14.5476 21.0155 14.621 21.0155 14.6937C21.0161 17.0674 21.0158 17.228 21.0158 19.6018V19.7653C21.033 19.7769 21.0498 19.7883 21.067 19.7999C21.0905 19.7592 21.1068 19.711 21.1386 19.6784C21.6817 19.1235 22.2248 18.5689 22.7718 18.0179C23.0564 17.7312 23.4876 17.7878 23.6596 18.132C23.7601 18.3333 23.742 18.5308 23.611 18.7137C23.5738 18.7654 23.528 18.8113 23.4831 18.8565C22.6309 19.7236 21.778 20.5901 20.9252 21.4565C20.6142 21.7722 20.3261 21.7722 20.0148 21.4559C19.153 20.5804 18.2922 19.7036 17.4288 18.8294C17.2714 18.6701 17.1811 18.4894 17.2329 18.2629C17.3274 17.8498 17.8066 17.6963 18.123 17.9736C18.1583 18.0043 18.1907 18.0382 18.2238 18.0719C18.7504 18.607 19.2776 19.1416 19.8027 19.6784C19.8341 19.7107 19.85 19.7592 19.8729 19.8002C19.8901 19.7883 19.9076 19.776 19.9248 19.764V19.7647Z" fill="#1E388B"/>
</g>
<defs>
<clipPath id="clip0_327_1476">
<rect width="13" height="11" fill="white" transform="translate(13.9702 13.9901)"/>
</clipPath>
</defs>
</svg>
