<svg width="26" height="39" viewBox="0 0 26 39" fill="none" xmlns="http://www.w3.org/2000/svg">
<path d="M10.0566 34.08H16.2266V36.66H10.0566V34.08ZM15.4166 34.71H10.8666V36.02H15.4166V34.71ZM9.48664 28.48H16.7566V29.13H9.48664V28.48ZM13.1366 29.49C14.0766 29.49 14.7966 29.6 15.2966 29.82C15.8033 30.0333 16.0566 30.35 16.0566 30.77C16.0566 31.19 15.8033 31.51 15.2966 31.73C14.7966 31.9433 14.0766 32.05 13.1366 32.05C12.21 32.05 11.49 31.9433 10.9766 31.73C10.47 31.51 10.2166 31.19 10.2166 30.77C10.2166 30.35 10.47 30.0333 10.9766 29.82C11.49 29.6 12.21 29.49 13.1366 29.49ZM13.1366 30.07C12.49 30.07 11.9866 30.13 11.6266 30.25C11.2733 30.37 11.0966 30.5433 11.0966 30.77C11.0966 30.9967 11.2733 31.17 11.6266 31.29C11.9866 31.41 12.49 31.47 13.1366 31.47C13.79 31.47 14.2933 31.41 14.6466 31.29C15 31.17 15.1766 30.9967 15.1766 30.77C15.1766 30.5433 15 30.37 14.6466 30.25C14.2933 30.13 13.79 30.07 13.1366 30.07ZM12.7266 27.6H13.5566V28.9H12.7266V27.6ZM9.05664 32.73H17.2266V33.39H9.05664V32.73ZM12.7266 31.84H13.5566V33.1H12.7266V31.84Z" fill="#808080"/>
<path d="M13.1123 2.94252L21.5368 9.52509V18.4739C21.5368 19.6671 20.5671 20.6256 19.3751 20.6256H6.63396C5.44201 20.6256 4.47228 19.6604 4.47228 18.4739V9.66586L13.1123 2.93582M13.1123 1.56836C12.816 1.56836 12.5129 1.6622 12.2638 1.8566L3.62377 8.58664C3.28705 8.84807 3.0985 9.24356 3.0985 9.66586V18.4739C3.0985 20.4178 4.68777 21.9998 6.6407 21.9998H19.3818C21.3348 21.9998 22.9241 20.4178 22.9241 18.4739V9.52509C22.9241 9.10279 22.7288 8.7073 22.3988 8.44587L13.9608 1.8633C13.7116 1.66891 13.4086 1.56836 13.1123 1.56836Z" fill="#313131"/>
<path d="M5.89993 1.36746C6.25685 1.36746 6.54642 1.6557 6.54642 2.01097V8.98903H4.47228V2.01097C4.47228 1.6557 4.76185 1.36746 5.11876 1.36746H5.89993ZM5.89993 0H5.11876C4.00088 0 3.0985 0.904936 3.0985 2.01097V8.98903C3.0985 9.7465 3.71131 10.3565 4.47228 10.3565H6.54642C7.30739 10.3565 7.9202 9.7465 7.9202 8.98903V2.01097C7.9202 0.898233 7.01108 0 5.89993 0Z" fill="#313131"/>
<path d="M13.523 2.43328C13.523 2.43328 13.4893 2.40646 13.4759 2.38635C13.3546 2.2657 13.1796 2.19196 13.0112 2.19866C12.8226 2.19866 12.6543 2.2657 12.5331 2.38635C12.5196 2.39976 12.4994 2.41987 12.4859 2.43328L1.54955 11.4156C1.31385 11.6703 1.32058 12.0658 1.56975 12.3138C1.82565 12.5686 2.23644 12.5686 2.49234 12.3138C2.51254 12.2937 2.52601 12.2803 2.54621 12.2669L12.5735 4.19623C12.7014 4.09568 12.8496 4.04205 13.0045 4.04205C13.1594 4.04205 13.3142 4.09568 13.4355 4.19623L23.4627 12.2669C23.4627 12.2669 23.5031 12.3004 23.5166 12.3138C23.6378 12.4345 23.8062 12.5015 23.9812 12.5015C24.1563 12.5015 24.318 12.4345 24.4459 12.3138C24.6951 12.0658 24.7018 11.6703 24.4661 11.4156L13.523 2.43328Z" fill="white"/>
<path d="M24.4392 12.3139C24.318 12.4346 24.1496 12.5016 23.9745 12.5016C23.7994 12.5016 23.6378 12.4346 23.5099 12.3139C23.4897 12.2938 23.4762 12.2804 23.456 12.267L13.4287 4.19629C13.3008 4.09574 13.1526 4.04212 12.9977 4.04212C12.8428 4.04212 12.688 4.09574 12.5667 4.19629L2.54621 12.267C2.54621 12.267 2.51254 12.3005 2.49234 12.3139C2.23644 12.5686 1.81892 12.5686 1.56975 12.3139C1.32058 12.0659 1.31385 11.6704 1.54955 11.4157L12.4859 2.43334C12.4859 2.43334 12.5196 2.40653 12.5331 2.38642C12.6543 2.26576 12.8226 2.19873 13.0112 2.19873C13.1796 2.19873 13.3546 2.26576 13.4759 2.38642C13.4893 2.39983 13.5095 2.41994 13.523 2.43334L24.4594 11.4157C24.6951 11.6704 24.6883 12.0726 24.4392 12.3139Z" fill="white"/>
<path d="M23.9814 13.8757C23.4494 13.8757 22.9578 13.6746 22.574 13.3126L13.0046 5.61059L3.4353 13.3126C2.64066 14.0701 1.37463 14.0634 0.593456 13.2858C-0.201182 12.4948 -0.194448 11.2145 0.593456 10.4302C0.606925 10.4168 0.627127 10.3967 0.640596 10.3833L11.5837 1.40096C11.9608 1.03228 12.4592 0.837891 12.9912 0.837891C13.0046 0.837891 13.0114 0.837891 13.0248 0.837891C13.5434 0.837891 14.0417 1.03899 14.4188 1.40096L25.3619 10.3833C25.3619 10.3833 25.3956 10.4101 25.4091 10.4302C26.197 11.2145 26.197 12.4948 25.4091 13.2858C25.0252 13.6679 24.5134 13.8757 23.9747 13.8757H23.9814ZM13.0046 4.04203C13.1595 4.04203 13.3144 4.09566 13.4356 4.19621L23.4629 12.2669C23.4629 12.2669 23.5033 12.3004 23.5168 12.3138C23.638 12.4345 23.8063 12.5015 23.9814 12.5015C24.1565 12.5015 24.3181 12.4345 24.4461 12.3138C24.6952 12.0658 24.702 11.6703 24.4663 11.4156L13.5232 2.43326C13.5232 2.43326 13.4895 2.40645 13.476 2.38634C13.3548 2.26568 13.1797 2.19194 13.0114 2.19865C12.8228 2.19865 12.6545 2.26568 12.5332 2.38634C12.5198 2.39974 12.4996 2.41985 12.4861 2.43326L1.54972 11.4156C1.31402 11.6703 1.32075 12.0658 1.56992 12.3138C1.82582 12.5685 2.23661 12.5685 2.49251 12.3138C2.51271 12.2937 2.52618 12.2803 2.54638 12.2669L12.5736 4.19621C12.7016 4.09566 12.8497 4.04203 13.0046 4.04203Z" fill="#313131"/>
<path d="M14.055 14.338C14.5937 14.338 15.0314 14.7737 15.0314 15.31V20.6257H10.9707V15.31C10.9707 14.7737 11.4084 14.338 11.9472 14.338H14.0482M14.055 12.9639H11.9539C10.6542 12.9639 9.59691 14.0163 9.59691 15.31V20.6257C9.59691 21.3831 10.2097 21.9931 10.9707 21.9931H15.0314C15.7924 21.9931 16.4052 21.3831 16.4052 20.6257V15.31C16.4052 14.0163 15.3479 12.9639 14.0482 12.9639H14.055Z" fill="#313131"/>
</svg>
