<svg width="26" height="22" viewBox="0 0 26 22" fill="none" xmlns="http://www.w3.org/2000/svg">
<path d="M13.3009 22C10.0892 22 6.87664 22 3.66487 22C2.05861 21.9992 0.916992 20.8159 0.916992 19.1495C0.916992 13.7157 0.916992 8.28272 0.916992 2.84893C0.916992 1.18336 2.05861 0 3.66561 0C10.1084 0 16.5512 0 22.9932 0C24.5832 0 25.7263 1.18565 25.7263 2.83515C25.7271 8.27813 25.7271 13.7211 25.7263 19.1641C25.7263 20.8128 24.5825 21.9985 22.9925 21.9992C19.7622 22 16.5312 21.9992 13.3009 21.9992V22ZM23.9447 12.4298C23.9506 12.3227 23.9558 12.276 23.9558 12.23C23.9558 9.09867 23.9573 5.96806 23.9551 2.83668C23.9551 2.21133 23.5748 1.83321 22.9585 1.83321C16.5364 1.83244 10.1136 1.83244 3.6915 1.83321C3.05966 1.83321 2.68972 2.21209 2.68898 2.86041C2.6875 7.30909 2.68824 11.7578 2.68898 16.2057C2.68898 16.2738 2.7023 16.3427 2.7134 16.4468C2.77555 16.3664 2.81106 16.3236 2.84361 16.2776C3.619 15.2099 4.38254 14.1329 5.17272 13.0766C5.87042 12.1443 6.80488 11.8091 7.91912 12.0387C8.46885 12.152 8.91647 12.4635 9.30786 12.8738C10.1698 13.7754 11.0384 14.671 11.9152 15.5803C11.978 15.5107 12.0313 15.4594 12.0757 15.4012C13.5799 13.4211 15.0877 11.4424 16.586 9.45766C17.7069 7.97272 19.4981 7.84643 20.7929 9.17521C21.2708 9.66585 21.7458 10.1611 22.2223 10.6533C22.7831 11.2319 23.3439 11.8098 23.9462 12.4306L23.9447 12.4298ZM10.7351 20.1515C10.8194 20.1607 10.8549 20.1676 10.8897 20.1676C14.9316 20.1676 18.9735 20.1699 23.0154 20.166C23.5866 20.166 23.9528 19.7665 23.9543 19.161C23.958 17.8628 23.9595 16.5639 23.9491 15.2657C23.9484 15.1417 23.8833 14.9879 23.7982 14.8991C22.3754 13.4142 20.9453 11.9369 19.5144 10.4604C19.0127 9.94294 18.4615 9.97892 18.028 10.5492C16.4202 12.6648 14.8132 14.7805 13.2055 16.8961C12.3916 17.9677 11.5778 19.0401 10.7343 20.1515H10.7351ZM10.8091 17.0676C10.7802 17.0193 10.7728 17.0002 10.7602 16.9872C9.8672 16.0626 8.97418 15.1379 8.08041 14.214C7.49888 13.6132 6.97801 13.6492 6.48821 14.325C5.31034 15.95 4.13321 17.575 2.95533 19.2008C2.70526 19.546 2.73485 19.7726 3.10331 19.9969C3.26238 20.0933 3.46436 20.1607 3.64711 20.1622C5.18752 20.1752 6.72719 20.1714 8.2676 20.1653C8.35565 20.1653 8.4755 20.1247 8.52655 20.0581C9.29158 19.0676 10.047 18.0703 10.8083 17.0683L10.8091 17.0676Z" fill="#1E388B"/>
<path d="M7.12037 6.41412C7.12111 4.89015 8.29824 3.66776 9.76466 3.66699C11.2636 3.66623 12.4378 4.88862 12.4349 6.4478C12.4319 7.95493 11.2377 9.16891 9.76096 9.16584C8.2938 9.16202 7.11889 7.93809 7.11963 6.41489L7.12037 6.41412ZM10.6621 6.4256C10.6666 5.93955 10.2596 5.51015 9.78612 5.50173C9.32 5.49331 8.89976 5.91965 8.8931 6.40723C8.88644 6.89098 9.29485 7.32269 9.76836 7.33187C10.233 7.34106 10.6577 6.91089 10.6621 6.4256Z" fill="#1E388B"/>
</svg>
