<svg width="26" height="22" viewBox="0 0 26 22" fill="none" xmlns="http://www.w3.org/2000/svg">
<path d="M25.9875 14.4023C25.8746 14.8665 25.7994 15.3565 25.6238 15.8078C24.7837 17.9223 23.2414 19.0957 21.0345 19.3149C20.6207 19.3536 20.2069 19.3407 19.7931 19.3407C16.5455 19.3407 13.2978 19.3407 10.0502 19.3407C9.86207 19.3407 9.72414 19.4051 9.58621 19.5341C8.90909 20.2432 8.21944 20.9524 7.52978 21.6615C7.09091 22.1128 6.68965 22.1128 6.25078 21.6615C5.47335 20.875 4.70846 20.0756 3.93103 19.2891C3.83072 19.1859 3.69279 19.0957 3.55486 19.0441C1.47335 18.3221 0.031348 16.3364 0.0188088 14.08C-0.00626959 11.1918 -0.00626959 8.30359 0.0188088 5.41538C0.0438871 2.82374 1.74922 0.709158 4.21944 0.128938C4.59561 0.0386813 4.99686 0 5.39812 0C10.4639 0 15.5298 0 20.5956 0C23.1787 0 25.2853 1.72777 25.8746 4.31941C25.9248 4.52571 25.9498 4.74491 26 4.95121V14.4023H25.9875ZM6.89028 20.1143C7.52978 19.4567 8.1442 18.8378 8.74608 18.1931C9.02194 17.8966 9.31034 17.7805 9.7116 17.7805C13.2978 17.7805 16.884 17.7805 20.4702 17.7805C22.815 17.7805 24.4702 16.0914 24.4702 13.6803C24.4702 10.9726 24.4702 8.25202 24.4702 5.54432C24.4702 3.27502 22.8025 1.57304 20.5956 1.56015C15.5298 1.56015 10.4639 1.56015 5.39812 1.56015C3.20376 1.56015 1.53605 3.27502 1.53605 5.51854C1.53605 8.30359 1.53605 11.1015 1.53605 13.8866C1.53605 15.6401 2.60188 17.0971 4.21944 17.6129C4.44514 17.6903 4.68339 17.8321 4.85893 18.0126C5.54859 18.6831 6.20063 19.3793 6.89028 20.0885V20.1143Z" fill="#1E388B"/>
<path d="M19.9557 7H5.98097C5.43919 7 5 7.44772 5 8C5 8.55228 5.43919 9 5.98097 9H19.9557C20.4975 9 20.9367 8.55228 20.9367 8C20.9367 7.44772 20.4975 7 19.9557 7Z" fill="#1E388B"/>
<path d="M19.9557 9.81055H5.98097C5.43919 9.81055 5 10.2583 5 10.8105C5 11.3628 5.43919 11.8105 5.98097 11.8105H19.9557C20.4975 11.8105 20.9367 11.3628 20.9367 10.8105C20.9367 10.2583 20.4975 9.81055 19.9557 9.81055Z" fill="#1E388B"/>
</svg>
