<svg width="49" height="37" viewBox="0 0 49 37" fill="none" xmlns="http://www.w3.org/2000/svg">
<path d="M1.23891 26.64H5.38891V32.48H1.23891V26.64ZM4.56891 27.3H2.04891V31.81H4.56891V27.3ZM6.99891 25.73H7.82891V34.78H6.99891V25.73ZM7.63891 29.34H9.30891V30.04H7.63891V29.34ZM16.6481 25.73H17.4781V34.79H16.6481V25.73ZM12.7081 26.43C13.1548 26.43 13.5481 26.56 13.8881 26.82C14.2348 27.0733 14.5048 27.4367 14.6981 27.91C14.8981 28.3833 14.9981 28.94 14.9981 29.58C14.9981 30.22 14.8981 30.7767 14.6981 31.25C14.5048 31.7233 14.2348 32.09 13.8881 32.35C13.5481 32.61 13.1548 32.74 12.7081 32.74C12.2615 32.74 11.8648 32.61 11.5181 32.35C11.1715 32.09 10.8981 31.7233 10.6981 31.25C10.5048 30.7767 10.4081 30.22 10.4081 29.58C10.4081 28.94 10.5048 28.3833 10.6981 27.91C10.8981 27.4367 11.1715 27.0733 11.5181 26.82C11.8648 26.56 12.2615 26.43 12.7081 26.43ZM12.7081 27.17C12.4081 27.17 12.1448 27.27 11.9181 27.47C11.6981 27.6633 11.5248 27.9433 11.3981 28.31C11.2715 28.67 11.2081 29.0933 11.2081 29.58C11.2081 30.0667 11.2715 30.4933 11.3981 30.86C11.5248 31.22 11.6981 31.5 11.9181 31.7C12.1448 31.9 12.4081 32 12.7081 32C13.0015 32 13.2581 31.9 13.4781 31.7C13.7048 31.5 13.8815 31.22 14.0081 30.86C14.1348 30.4933 14.1981 30.0667 14.1981 29.58C14.1981 29.0933 14.1348 28.67 14.0081 28.31C13.8815 27.9433 13.7048 27.6633 13.4781 27.47C13.2581 27.27 13.0015 27.17 12.7081 27.17ZM28.4434 25.73H29.2434V34.78H28.4434V25.73ZM25.4734 29.17H26.9634V29.91H25.4734V29.17ZM26.6934 25.95H27.4834V34.3H26.6934V25.95ZM21.6134 26.88H25.7334V27.56H21.6134V26.88ZM21.5234 32.55L21.4234 31.85C21.7234 31.85 22.0601 31.85 22.4334 31.85C22.8068 31.8433 23.1968 31.8333 23.6034 31.82C24.0101 31.8 24.4134 31.7767 24.8134 31.75C25.2134 31.7167 25.5868 31.6767 25.9334 31.63L25.9934 32.25C25.5201 32.3367 25.0101 32.4033 24.4634 32.45C23.9234 32.49 23.3968 32.5167 22.8834 32.53C22.3701 32.5433 21.9168 32.55 21.5234 32.55ZM22.3534 27.32H23.1134V32.05H22.3534V27.32ZM24.2234 27.32H24.9934V32.05H24.2234V27.32ZM37.2927 25.73H38.1227V34.79H37.2927V25.73ZM33.3527 26.43C33.7993 26.43 34.1927 26.56 34.5327 26.82C34.8793 27.0733 35.1493 27.4367 35.3427 27.91C35.5427 28.3833 35.6427 28.94 35.6427 29.58C35.6427 30.22 35.5427 30.7767 35.3427 31.25C35.1493 31.7233 34.8793 32.09 34.5327 32.35C34.1927 32.61 33.7993 32.74 33.3527 32.74C32.906 32.74 32.5093 32.61 32.1627 32.35C31.816 32.09 31.5427 31.7233 31.3427 31.25C31.1493 30.7767 31.0527 30.22 31.0527 29.58C31.0527 28.94 31.1493 28.3833 31.3427 27.91C31.5427 27.4367 31.816 27.0733 32.1627 26.82C32.5093 26.56 32.906 26.43 33.3527 26.43ZM33.3527 27.17C33.0527 27.17 32.7893 27.27 32.5627 27.47C32.3427 27.6633 32.1693 27.9433 32.0427 28.31C31.916 28.67 31.8527 29.0933 31.8527 29.58C31.8527 30.0667 31.916 30.4933 32.0427 30.86C32.1693 31.22 32.3427 31.5 32.5627 31.7C32.7893 31.9 33.0527 32 33.3527 32C33.646 32 33.9027 31.9 34.1227 31.7C34.3493 31.5 34.526 31.22 34.6527 30.86C34.7793 30.4933 34.8427 30.0667 34.8427 29.58C34.8427 29.0933 34.7793 28.67 34.6527 28.31C34.526 27.9433 34.3493 27.6633 34.1227 27.47C33.9027 27.27 33.646 27.17 33.3527 27.17ZM42.3119 27.03H42.9919V28.49C42.9919 28.97 42.9252 29.4433 42.7919 29.91C42.6585 30.37 42.4719 30.8067 42.2319 31.22C41.9985 31.6267 41.7252 31.9867 41.4119 32.3C41.0985 32.6133 40.7619 32.86 40.4019 33.04L39.9219 32.38C40.2485 32.22 40.5552 32.0033 40.8419 31.73C41.1352 31.4567 41.3919 31.1433 41.6119 30.79C41.8319 30.4367 42.0019 30.0633 42.1219 29.67C42.2485 29.2767 42.3119 28.8833 42.3119 28.49V27.03ZM42.4819 27.03H43.1519V28.49C43.1519 28.87 43.2119 29.25 43.3319 29.63C43.4585 30.0033 43.6319 30.3567 43.8519 30.69C44.0785 31.0167 44.3352 31.3067 44.6219 31.56C44.9152 31.8133 45.2285 32.0133 45.5619 32.16L45.1019 32.82C44.7352 32.6467 44.3919 32.4133 44.0719 32.12C43.7519 31.8267 43.4719 31.49 43.2319 31.11C42.9985 30.7233 42.8152 30.31 42.6819 29.87C42.5485 29.4233 42.4819 28.9633 42.4819 28.49V27.03ZM40.2119 26.66H45.2619V27.35H40.2119V26.66ZM46.4919 25.73H47.3219V34.78H46.4919V25.73Z" fill="#808080"/>
<path d="M25.0126 0C23.3204 0 21.7435 0.644457 20.5385 1.83228C19.3462 3.00747 18.6924 4.57438 18.6924 6.24239C18.6924 9.67949 21.5256 12.4721 25.0126 12.4721C26.692 12.4721 28.2816 11.8277 29.4739 10.6399C30.6661 9.46467 31.3328 7.89776 31.3328 6.22975C31.3328 2.79265 28.4996 0 25.0126 0ZM28.2945 9.46467C27.4227 10.3366 26.2561 10.8041 25.0126 10.8041C22.4486 10.8041 20.3718 8.75703 20.3718 6.22975C20.3718 5.00402 20.859 3.85411 21.7307 2.99483C22.6153 2.12292 23.7691 1.65537 25.0126 1.65537C27.5766 1.65537 29.6534 3.71511 29.6534 6.22975C29.6534 7.45548 29.1662 8.6054 28.2945 9.46467Z" fill="#313131"/>
<path d="M17.8333 21.9874H32.1659C32.6146 21.9874 32.9863 21.6335 32.9992 21.1913C32.9992 20.9638 33.1402 15.7071 29.7814 12.6743C29.4865 12.409 29.025 12.3837 28.7045 12.6238C28.666 12.649 24.9611 15.4038 21.5126 12.6238C21.1921 12.371 20.7434 12.3837 20.4357 12.6364C20.3075 12.7754 17.0769 15.606 17 21.1534C17 21.3682 17.0769 21.583 17.2436 21.7473C17.3974 21.8989 17.6154 22 17.8333 22V21.9874ZM21.0895 14.3676C24.1022 16.3389 27.3456 15.4038 29.1276 14.355C30.8326 16.2504 31.23 19.0052 31.3198 20.3446H18.705C18.9614 17.1982 20.346 15.2269 21.0895 14.3802V14.3676Z" fill="#313131"/>
</svg>
