<svg width="166" height="200" viewBox="0 0 166 200" fill="none" xmlns="http://www.w3.org/2000/svg">
<path d="M111.279 43.8148C116.689 53.4836 109.88 68.4222 115.506 76.3794C118.564 80.7184 123.176 83.616 126.572 87.6697C129.969 91.7234 131.968 97.9991 128.909 102.533C128.14 103.689 127.064 104.65 126.526 105.926C125.051 109.349 127.787 112.833 129.616 115.97C139.315 132.531 120.347 142.545 101.826 137.185C93.5412 134.798 90.3749 133.131 84.1652 127.126C78.0324 121.195 74.5741 112.743 73.4674 104.08C72.3607 95.4017 73.4674 86.4986 75.4809 77.8958C77.7865 67.9868 81.5676 57.8826 89.0223 51.0063C96.477 44.115 103.025 36.9685 111.294 43.8148H111.279Z" fill="#DDE2F1"/>
<path d="M111.818 139.362C108.482 139.362 105.009 138.896 101.596 137.905C93.45 135.548 90.0992 133.927 83.6129 127.666C77.7875 122.036 73.8987 113.688 72.6998 104.185C71.7161 96.4676 72.3771 87.8198 74.7287 77.7456C77.6799 65.0891 82.0451 56.4262 88.4853 50.4807C88.9925 50.0153 89.4844 49.5499 89.9763 49.0995C96.9391 42.5986 103.533 36.443 111.772 43.2592C111.848 43.3192 111.895 43.3943 111.941 43.4694C114.738 48.4689 114.4 54.6846 114.062 60.7051C113.739 66.6054 113.432 72.1755 116.106 75.974C117.766 78.3161 119.949 80.2979 122.07 82.2046C123.807 83.7661 125.59 85.3875 127.127 87.2192C130.585 91.363 132.814 98.0591 129.509 102.954C129.217 103.404 128.879 103.809 128.556 104.215C128.018 104.89 127.496 105.521 127.188 106.242C126.066 108.839 127.772 111.616 129.417 114.289C129.694 114.739 129.97 115.19 130.232 115.64C133.874 121.856 133.859 127.771 130.186 132.305C126.497 136.869 119.518 139.392 111.787 139.392L111.818 139.362ZM104.532 41.8028C99.9517 41.8028 95.7094 45.7664 91.0214 50.1504C90.5296 50.6159 90.0224 51.0813 89.5305 51.5467C83.3208 57.2819 79.0786 65.7046 76.2043 78.0759C73.8987 87.9849 73.2378 96.4676 74.2061 104.005C75.3743 113.193 79.0939 121.225 84.6888 126.615C90.9753 132.696 94.0341 134.182 102.027 136.494C112.755 139.587 124.114 137.44 129.033 131.359C132.337 127.276 132.307 122.081 128.956 116.346C128.695 115.91 128.433 115.475 128.157 115.025C126.404 112.172 124.406 108.944 125.82 105.656C126.205 104.755 126.804 104.004 127.388 103.284C127.711 102.893 128.003 102.518 128.264 102.128C131.154 97.8489 129.094 91.8735 125.974 88.135C124.498 86.3784 122.762 84.802 121.055 83.2706C118.873 81.3038 116.613 79.277 114.876 76.7847C111.91 72.5809 112.233 66.7556 112.556 60.6C112.863 54.8347 113.186 48.8893 110.68 44.2651C108.528 42.5085 106.5 41.7878 104.532 41.7878V41.8028Z" fill="#B3B3B3"/>
<path d="M53.7023 47.9134C48.2919 57.5822 55.101 72.5208 49.4754 80.4781C46.4167 84.817 41.8056 87.7146 38.4087 91.7683C35.0118 95.822 33.0136 102.098 36.0724 106.632C36.8409 107.788 37.9169 108.749 38.4548 110.025C39.9304 113.448 37.1944 116.931 35.3653 120.069C25.6665 136.629 44.6338 146.643 63.1552 141.283C71.4399 138.896 74.6062 137.23 80.8159 131.224C86.9487 125.294 90.4071 116.841 91.5138 108.178C92.6204 99.5004 91.5138 90.5973 89.5002 81.9944C87.1947 72.0854 83.4135 61.9812 75.9588 55.1049C68.5041 48.2137 61.9563 41.0671 53.687 47.9134H53.7023Z" fill="#DDE2F1"/>
<path d="M53.1652 143.461C45.4339 143.461 38.4557 140.923 34.7667 136.374C31.0932 131.84 31.0778 125.925 34.7206 119.709C34.9819 119.274 35.2586 118.823 35.5353 118.358C37.1799 115.685 38.886 112.923 37.764 110.326C37.4565 109.605 36.934 108.974 36.396 108.299C36.0732 107.893 35.735 107.488 35.443 107.038C32.1383 102.128 34.3671 95.447 37.8255 91.3032C39.3625 89.4716 41.1455 87.8501 42.8824 86.2887C45.0035 84.3819 47.2014 82.4001 48.8461 80.058C51.5205 76.2595 51.2132 70.6895 50.8904 64.7891C50.5676 58.7686 50.2295 52.5529 53.0115 47.5534C53.0576 47.4783 53.1191 47.4032 53.1806 47.3432C61.4192 40.527 67.9977 46.6676 74.9759 53.1835C75.4678 53.6489 75.9596 54.1144 76.4669 54.5648C82.9071 60.5102 87.2724 69.1731 90.2235 81.8296C92.5752 91.9038 93.2361 100.552 92.2524 108.269C91.0381 117.787 87.1648 126.12 81.3393 131.75C74.8684 138.011 71.5176 139.632 63.3558 141.989C59.9436 142.98 56.4699 143.446 53.1345 143.446L53.1652 143.461ZM54.3026 48.3942C51.7819 53.0034 52.1047 58.9638 52.4274 64.729C52.7656 70.8846 53.073 76.7099 50.1065 80.9138C48.3542 83.391 46.0948 85.4329 43.9275 87.3997C42.2368 88.9311 40.4845 90.5075 39.009 92.2641C35.8888 96.0025 33.8291 101.978 36.7188 106.257C36.9801 106.647 37.2875 107.023 37.5949 107.413C38.179 108.134 38.7784 108.869 39.1627 109.785C40.5768 113.073 38.594 116.316 36.8264 119.154C36.5497 119.604 36.273 120.039 36.0271 120.475C32.6609 126.21 32.6302 131.405 35.9503 135.489C40.8688 141.569 52.2276 143.716 62.9562 140.623C70.9489 138.311 74.0076 136.825 80.2942 130.744C85.889 125.339 89.6087 117.307 90.7768 108.134C91.7452 100.582 91.0842 92.099 88.7787 82.205C85.9044 69.8487 81.6621 61.411 75.4525 55.6758C74.9452 55.2104 74.4534 54.7449 73.9615 54.2795C67.2446 48.0188 61.4499 42.5989 54.3026 48.4092V48.3942Z" fill="#B3B3B3"/>
<path d="M132.231 153.264C132.231 121.18 107.838 112.292 86.5346 111.992C55.2556 111.556 33.2911 128.312 35.3047 152.859C68.8124 153.339 101.275 153.159 132.231 153.264Z" fill="white"/>
<path d="M132.231 154C122.978 153.97 113.787 153.97 104.072 153.955C81.816 153.955 58.8063 153.925 35.3048 153.595C34.9205 153.595 34.5978 153.295 34.5671 152.919C33.7217 142.665 36.9648 133.402 43.9277 126.12C53.2268 116.421 68.7664 110.986 86.5501 111.242C95.342 111.362 107.9 112.998 117.829 120.1C127.897 127.306 133 138.461 133 153.25C133 153.445 132.923 153.64 132.785 153.775C132.646 153.91 132.446 153.985 132.247 153.985L132.231 154ZM36.0119 152.124C59.2521 152.439 82.0312 152.454 104.072 152.469C113.525 152.469 122.471 152.469 131.478 152.514C131.048 117.187 99.9532 112.908 86.5193 112.713C69.1507 112.473 54.0415 117.727 45.019 127.126C38.5019 133.927 35.3971 142.56 36.0119 152.124Z" fill="#B3B3B3"/>
<path d="M73.1602 114.874C74.8817 107.908 75.8193 100.777 76.68 92.5941C79.8771 91.7534 83.2125 91.393 86.5325 91.5282C88.0234 91.5882 89.6681 91.8284 90.5903 92.8944C91.1744 93.57 91.3742 94.4558 91.5433 95.2966C92.7575 101.122 93.9718 106.947 95.1861 112.788C95.2783 113.238 95.3705 113.703 95.2476 114.154C95.0785 114.784 94.4944 115.25 93.9257 115.64C87.9466 119.679 79.1086 119.574 73.1755 114.874H73.1602Z" fill="white"/>
<path d="M84.0881 119.304C79.9995 119.304 75.9263 118.012 72.6832 115.445C72.4526 115.265 72.3604 114.98 72.4219 114.694C74.0973 107.878 75.0349 100.897 75.911 92.5041C75.9417 92.2038 76.1569 91.9486 76.4643 91.8735C79.7536 91.0178 83.1351 90.6424 86.532 90.7926C88.0691 90.8526 89.9903 91.0928 91.1278 92.414C91.8502 93.2398 92.0654 94.3058 92.2498 95.1465L95.8926 112.637C96.0002 113.118 96.1232 113.718 95.9387 114.334C95.6928 115.205 94.9858 115.775 94.3095 116.226C91.2815 118.268 87.6694 119.289 84.0573 119.289L84.0881 119.304ZM74.0051 114.589C79.5077 118.658 87.7924 118.868 93.4795 115.025C93.9252 114.724 94.3863 114.364 94.5093 113.959C94.5861 113.673 94.5093 113.298 94.4324 112.938L90.7896 95.4468C90.6359 94.7261 90.4668 93.9154 90.0057 93.3749C89.2372 92.4891 87.7309 92.3089 86.4859 92.2639C83.4118 92.1438 80.3531 92.4441 77.3712 93.1797C76.5258 101.212 75.6036 107.968 74.0051 114.589Z" fill="#B3B3B3"/>
<path d="M107.086 43.9948C107.086 43.9948 108.177 55.1499 108.177 60.7801C111.313 57.2969 117.707 60.3747 115.509 65.7946C113.664 70.3288 108.5 69.3829 108.5 69.3829C108.5 69.3829 106.594 97.7437 85.4132 96.8129C58.4995 97.9389 57.2084 68.1668 57.2084 68.1668C53.9191 72.6108 48.0476 68.8424 48.3396 64.4434C48.647 59.624 53.5656 55.7655 57.5619 60.7801C57.8847 54.7446 58.6225 49.7 59.9136 43.5894C60.3901 39.9711 63.0799 36.8783 66.3846 35.0917C69.6892 33.305 73.5319 32.6895 77.313 32.5093C81.7858 32.2991 86.2894 32.6745 90.67 33.6203C96.6952 34.9115 102.843 37.614 107.101 44.0098L107.086 43.9948Z" fill="white"/>
<path d="M83.9381 97.5632C70.6272 97.5632 63.8642 89.8462 60.5288 83.2251C57.8082 77.8502 56.886 72.4753 56.5785 69.8479C55.1952 70.8989 53.5045 71.1842 51.7983 70.5836C49.2161 69.6828 47.4024 67.0104 47.5715 64.383C47.7713 61.3052 49.6465 58.6177 52.1211 57.882C53.1356 57.5818 54.9647 57.4016 56.9014 59.0231C57.2395 53.9785 57.9158 49.3393 59.1608 43.4539C59.6373 39.8656 62.2042 36.4876 66.0161 34.4307C68.9826 32.8242 72.5639 31.9835 77.2826 31.7583C81.8323 31.5481 86.382 31.9234 90.8241 32.8843C98.5093 34.5358 104.027 38.034 107.732 43.589C107.793 43.6941 107.839 43.7992 107.855 43.9193C107.855 44.0244 108.777 53.3629 108.931 59.2333C110.544 58.3024 112.573 58.3024 114.279 59.3234C116.016 60.3593 117.569 62.7465 116.232 66.0495C114.802 69.5927 111.374 70.3134 109.192 70.1933C108.977 72.2351 108.177 77.9854 105.595 83.7356C101.368 93.1492 94.4054 97.9235 85.4136 97.5332C84.9218 97.5482 84.4299 97.5632 83.9535 97.5632H83.9381ZM57.1934 67.4157C57.1934 67.4157 57.3317 67.4157 57.4086 67.4458C57.716 67.5358 57.9312 67.8061 57.9465 68.1214C57.9465 68.1964 58.3154 75.5231 61.8968 82.6096C66.6463 91.9931 74.5467 96.5122 85.3675 96.0618C85.3829 96.0618 85.4136 96.0618 85.429 96.0618C105.626 96.9777 107.716 69.6077 107.732 69.3225C107.732 69.1123 107.855 68.9171 108.024 68.782C108.193 68.6469 108.408 68.6018 108.623 68.6469C108.808 68.6769 113.219 69.4126 114.802 65.509C115.801 63.0618 114.771 61.3502 113.465 60.5845C112.174 59.8188 110.145 59.6987 108.731 61.2601C108.531 61.4853 108.193 61.5754 107.901 61.4553C107.609 61.3502 107.409 61.0649 107.409 60.7647C107.409 55.63 106.471 45.706 106.333 44.2346C102.813 39.0399 97.7715 35.887 90.4705 34.3106C86.1514 33.3797 81.7401 33.0194 77.3134 33.2296C72.8406 33.4398 69.4591 34.2355 66.7077 35.7219C63.3109 37.5535 61.036 40.5262 60.621 43.6641C60.621 43.6791 60.621 43.6941 60.621 43.7242C59.253 50.195 58.5767 55.1496 58.2847 60.8097C58.2693 61.11 58.0541 61.3802 57.7621 61.4703C57.4547 61.5604 57.1319 61.4703 56.9475 61.2151C55.5795 59.5035 54.0578 58.8279 52.5669 59.2783C50.707 59.8338 49.2315 62.0258 49.0778 64.4731C48.9548 66.4699 50.3381 68.4967 52.3055 69.1873C53.2432 69.5176 55.0569 69.7729 56.5785 67.716C56.7169 67.5208 56.9475 67.4157 57.1934 67.4157Z" fill="#B3B3B3"/>
<path d="M119.777 15.4391C118.516 6.17569 109.817 -0.325226 100.348 0.890882C90.8648 2.122 84.2094 10.6197 85.4544 19.8682C86.7148 29.1316 95.4145 35.6325 104.883 34.4164C114.366 33.1853 121.022 24.6876 119.777 15.4391Z" fill="#DDE2F1"/>
<path d="M102.579 35.3019C98.6284 35.3019 94.8166 34.0407 91.6349 31.6536C87.8076 28.786 85.3483 24.6422 84.7181 19.9579C84.0879 15.2737 85.3483 10.6494 88.2841 6.91103C91.2198 3.17263 95.4621 0.770438 100.258 0.154877C105.038 -0.460684 109.787 0.770441 113.615 3.63805C117.442 6.50566 119.901 10.6494 120.531 15.3337C121.838 24.9725 114.875 33.8606 104.992 35.1367C104.193 35.2418 103.378 35.2869 102.579 35.2869V35.3019ZM102.655 1.47608C101.918 1.47608 101.18 1.52112 100.442 1.61121C96.0615 2.18173 92.1574 4.37372 89.4676 7.81185C86.7778 11.235 85.6096 15.4838 86.1937 19.7627C87.3926 28.6058 95.7388 34.8365 104.777 33.6654C113.83 32.4943 120.209 24.3569 119.01 15.5139C118.426 11.235 116.182 7.4215 112.662 4.7941C109.741 2.60211 106.237 1.46107 102.625 1.46107L102.655 1.47608Z" fill="#B3B3B3"/>
<path d="M95.4626 34.9863C81.7675 47.6428 66.3355 51.9367 51.0419 54.7293C50.135 52.282 50.0735 46.1414 50.5807 43.514C51.8411 37.0882 53.9315 31.2929 62.1547 25.2724C67.9187 21.0536 74.9584 18.261 82.1364 17.6905C89.2683 17.135 96.0774 22.1195 99.0439 26.6837C104.255 26.0832 109.788 30.3621 112.263 35.7369C114.368 40.3461 115.905 48.0482 110.756 56.3057C109.896 55.7802 98.7366 42.5532 95.478 34.9713L95.4626 34.9863Z" fill="#DDE2F1"/>
<path d="M110.741 57.0567C110.603 57.0567 110.465 57.0117 110.342 56.9366C109.189 56.2159 98.8906 43.8447 95.2016 36.2177C81.4758 48.5289 65.9362 52.7478 51.1805 55.4502C50.8117 55.5103 50.4581 55.3151 50.3351 54.9848C49.3514 52.3424 49.3361 45.9766 49.8433 43.3792C51.2574 36.1727 53.7321 30.5275 61.7093 24.6872C67.75 20.2732 74.9741 17.5257 82.0753 16.9702C89.115 16.4147 96.0316 20.9938 99.4285 25.9183C104.532 25.603 110.28 29.6267 112.939 35.452C114.784 39.4907 117.043 47.6281 111.387 56.7114C111.279 56.8765 111.11 56.9966 110.91 57.0417C110.849 57.0417 110.803 57.0567 110.741 57.0567ZM95.463 34.2509C95.463 34.2509 95.5706 34.2509 95.6167 34.2659C95.8626 34.311 96.0624 34.4761 96.1546 34.7013C99.0596 41.4575 108.067 52.4175 110.572 55.1349C115.245 46.9675 113.216 39.7159 111.556 36.0526C109.066 30.6026 103.717 26.8942 99.1211 27.4197C98.8291 27.4497 98.5524 27.3146 98.3987 27.0744C95.4322 22.4952 88.746 17.901 82.1982 18.4265C75.3737 18.967 68.4263 21.6094 62.6162 25.8583C54.2085 32.0139 52.4256 38.0194 51.3343 43.6495C50.8578 46.0967 50.9192 51.3215 51.5801 53.8738C66.1975 51.1563 81.5219 46.8474 94.9557 34.4311C95.094 34.296 95.2785 34.2359 95.4783 34.2359L95.463 34.2509Z" fill="#B3B3B3"/>
<path d="M83.6442 86.7839C82.0303 86.7839 80.6162 86.1983 79.6479 85.1174C79.3712 84.8021 79.4173 84.3366 79.7247 84.0814C80.0321 83.8112 80.524 83.8412 80.7853 84.1565C82.1225 85.6579 84.2897 85.2975 84.9199 85.1624C86.8412 84.712 88.5628 83.5409 89.7617 81.8444C89.9922 81.5141 90.4687 81.424 90.8069 81.6492C91.145 81.8744 91.2372 82.3398 91.0067 82.6701C89.5926 84.667 87.5637 86.0632 85.2735 86.5887C84.7201 86.7238 84.1668 86.7839 83.6442 86.7839Z" fill="#B3B3B3"/>
<path d="M97.1089 63.4524C97.1396 62.6117 96.4326 61.906 95.5257 61.876C94.6189 61.846 93.8657 62.4916 93.8349 63.3323C93.8042 64.1731 94.5113 64.8787 95.4181 64.9088C96.325 64.9388 97.0781 64.2932 97.1089 63.4524Z" fill="#B3B3B3"/>
<path d="M73.0249 62.5213C73.0556 61.6805 72.3486 60.9749 71.4417 60.9449C70.5349 60.9148 69.7817 61.5604 69.751 62.4012C69.7202 63.2419 70.4273 63.9476 71.3341 63.9776C72.241 64.0076 72.9941 63.362 73.0249 62.5213Z" fill="#B3B3B3"/>
<path d="M82.3522 77.4456C82.2292 77.4456 82.0909 77.4155 81.9679 77.3405L79.9236 76.1844C79.6623 76.0343 79.1397 75.734 79.0168 75.1485C78.863 74.4278 79.4164 73.9023 79.6777 73.6621C81.6451 71.8154 82.6442 69.158 82.3522 66.5757C82.3061 66.1703 82.5981 65.81 83.0131 65.7649C83.4281 65.7199 83.797 66.0051 83.8431 66.4105C84.1813 69.4433 83.0285 72.5511 80.7229 74.7131C80.6922 74.7431 80.6307 74.7882 80.5846 74.8482C80.6153 74.8632 80.6461 74.8782 80.6768 74.9083L82.721 76.0643C83.0746 76.2745 83.1975 76.7249 82.9977 77.0702C82.8594 77.3104 82.5981 77.4306 82.3522 77.4306V77.4456Z" fill="#B3B3B3"/>
<path d="M96.8351 75.9286C94.2836 75.9286 91.8705 74.9077 89.9953 73.031C88.0586 71.0792 86.9212 68.4518 86.8136 65.5992C86.583 59.6988 90.8714 54.7443 96.3586 54.5341C99.0331 54.429 101.585 55.465 103.552 57.4318C105.489 59.3836 106.626 62.0109 106.734 64.8635C106.964 70.7639 102.676 75.7184 97.1887 75.9136C97.0657 75.9136 96.9581 75.9136 96.8351 75.9136V75.9286ZM96.6968 56.0055C96.6046 56.0055 96.497 56.0055 96.4047 56.0055C91.7475 56.1706 88.1201 60.4495 88.3199 65.5392C88.4121 68.0164 89.3958 70.3135 91.0712 71.995C92.7312 73.6616 94.8677 74.5324 97.1118 74.4423C101.769 74.2771 105.396 69.9982 105.197 64.9086C105.104 62.4313 104.121 60.1342 102.445 58.4527C100.862 56.8613 98.8179 55.9905 96.6968 55.9905V56.0055Z" fill="#B3B3B3"/>
<path d="M69.6291 74.7281C67.0776 74.7281 64.6644 73.7071 62.7892 71.8304C60.8525 69.8787 59.7151 67.2513 59.6075 64.3987C59.377 58.4983 63.6654 53.5438 69.1526 53.3486C71.8271 53.2435 74.3786 54.2794 76.346 56.2462C78.2827 58.198 79.4201 60.8254 79.5277 63.678C79.7583 69.5784 75.4699 74.5329 69.9826 74.7281C69.8596 74.7281 69.7521 74.7281 69.6291 74.7281ZM69.4908 54.8049C69.3986 54.8049 69.291 54.8049 69.1987 54.8049C64.5415 54.9701 60.914 59.249 61.1138 64.3386C61.2061 66.8159 62.1898 69.113 63.8652 70.7945C65.5252 72.461 67.677 73.3318 69.9058 73.2417C74.563 73.0766 78.1905 68.7977 77.9907 63.708C77.8984 61.2308 76.9147 58.9337 75.2393 57.2521C73.6562 55.6607 71.6119 54.7899 69.4908 54.7899V54.8049Z" fill="#B3B3B3"/>
<path d="M78.726 62.687C78.726 62.687 78.6953 62.687 78.6645 62.687C78.2495 62.6569 77.9421 62.2966 77.9728 61.8913C78.0958 60.3148 79.7251 59.369 81.2929 59.1287C83.7829 58.7384 86.5035 59.6092 88.2096 61.3508C88.5016 61.651 88.4863 62.1165 88.1789 62.3867C87.8714 62.672 87.395 62.657 87.1183 62.3567C85.7503 60.9604 83.5523 60.2548 81.5388 60.5701C80.5858 60.7202 79.5406 61.2757 79.4791 61.9963C79.4484 62.3867 79.1256 62.672 78.726 62.672V62.687Z" fill="#B3B3B3"/>
<path d="M111.282 27.6448C111.02 27.6448 110.774 27.5096 110.636 27.2844C109.591 25.5579 107.977 24.0415 105.84 22.7653C103.858 21.5792 101.614 20.7385 99.5078 19.9878C99.1081 19.8527 98.9083 19.4323 99.0466 19.0419C99.185 18.6516 99.6154 18.4564 100.015 18.5915C102.198 19.3572 104.519 20.243 106.624 21.4892C108.976 22.9004 110.774 24.582 111.943 26.5187C112.158 26.8641 112.035 27.3145 111.681 27.5247C111.558 27.5997 111.435 27.6298 111.297 27.6298L111.282 27.6448Z" fill="#B3B3B3"/>
<g opacity="0.13">
<path d="M74.8055 104.936C74.9131 104.365 75.0207 103.795 75.1283 103.239C75.405 102.173 75.6202 101.092 75.7278 99.9962C75.9122 98.9752 76.0966 97.9543 76.2811 96.9184C76.2965 96.7983 76.2811 96.6932 76.2196 96.6181C76.235 96.543 76.2657 96.468 76.2811 96.3929C76.3426 96.1527 76.235 95.9875 76.0813 95.8974C76.7422 95.3269 77.7413 95.9275 78.5406 96.1977C79.0939 96.3929 79.7548 96.6031 80.9691 96.7682C81.9528 96.9334 85.0269 96.7983 85.9338 96.9034C86.2565 96.9634 86.4871 97.1286 86.6255 97.3388C87.1327 97.0685 87.6399 96.7983 88.1471 96.513C88.4853 96.3328 88.8081 96.1527 89.1309 95.9725C89.9609 95.8974 90.7755 95.7923 91.5748 95.6572C91.5748 95.7623 91.5901 95.8524 91.6055 95.9425C91.6055 96.0626 91.6209 96.1827 91.667 96.3028C91.6977 96.3929 91.7285 96.468 91.7746 96.558C91.9129 96.8733 92.0666 97.1736 92.1896 97.5039C92.1281 97.564 92.0513 97.639 91.9744 97.6841C89.0694 99.4707 86.0567 101.122 83.1978 103.014C81.7837 103.96 80.3389 104.891 78.9095 105.806C78.2793 106.167 77.6644 106.617 76.9574 106.827C76.9574 106.827 76.9574 106.827 76.9728 106.827C76.9728 106.827 76.942 106.827 76.9267 106.827C76.8959 106.827 76.8805 106.842 76.8498 106.842C76.7883 106.857 76.7422 106.872 76.6807 106.887C76.6039 106.917 76.527 106.932 76.4348 106.932C76.4348 106.932 76.4194 106.932 76.4041 106.932C76.2657 106.948 76.1274 106.948 75.9737 106.932C75.4357 106.857 75.0515 106.482 74.867 106.047C74.7748 105.957 74.6826 105.852 74.6211 105.731C74.6672 105.461 74.7133 105.191 74.7594 104.921L74.8055 104.936Z" fill="#B3B3B3"/>
</g>
<path d="M57.1464 64.8336C57.1464 64.8336 57.1003 64.8336 57.0696 64.8336C56.6546 64.7886 56.3471 64.4283 56.3933 64.0229L56.7314 60.5547C56.7775 60.1494 57.1311 59.8491 57.5614 59.8941C57.9764 59.9392 58.2838 60.2995 58.2377 60.7049L57.8996 64.173C57.8688 64.5484 57.5307 64.8336 57.1464 64.8336Z" fill="#B3B3B3"/>
<path d="M108.068 64.939C108.068 64.939 108.068 64.939 108.053 64.939C107.638 64.939 107.3 64.5936 107.315 64.1883L107.423 59.8794C107.423 59.474 107.761 59.1587 108.176 59.1587C108.176 59.1587 108.176 59.1587 108.191 59.1587C108.606 59.1587 108.944 59.504 108.929 59.9094L108.821 64.2183C108.821 64.6237 108.483 64.939 108.068 64.939Z" fill="#B3B3B3"/>
<g opacity="0.13">
<path d="M107.532 52.7289C105.58 51.0023 103.735 48.9454 102.06 45.8676C100.2 42.5496 97.6944 39.1415 96.9566 36.6493C96.4187 34.9227 94.2514 35.1179 93.6366 36.379C93.3138 36.6342 93.0986 36.9946 92.8527 37.3249C92.3608 37.9404 91.7922 38.4959 91.1927 39.0064C88.3184 41.5587 84.5219 43.7807 80.172 45.6575C76.3602 47.5342 74.3159 48.405 70.4579 49.7262C67.9218 50.597 65.3088 51.2876 62.6804 51.8581C61.7428 52.0833 60.8206 52.3085 59.8676 52.5037C59.3758 52.6388 58.7917 52.6388 58.4074 52.9991C56.855 54.0951 58.1154 56.5574 59.9598 56.0469C66.7997 54.6206 73.409 52.3085 79.6341 49.1857C83.7226 47.2339 87.7805 45.4172 91.3464 42.5797C92.4531 41.6938 93.5444 40.778 94.4974 39.7271C96.0651 42.7298 97.8174 44.1411 99.3698 46.7685C100.569 48.6602 101.844 50.5219 103.366 52.1884C103.904 52.7589 104.473 53.2994 105.026 53.8399C105.395 54.2453 105.779 54.6957 106.379 54.6807C107.362 54.7107 108.039 53.5546 107.516 52.7439L107.532 52.7289Z" fill="#B3B3B3"/>
</g>
<g opacity="0.13">
<path d="M112.463 30.0276C110.08 27.3852 107.099 25.1932 103.579 24.2474C102.457 23.9921 101.304 23.9171 100.166 23.827C97.5227 20.7342 95.2479 18.9175 91.144 16.9958C89.9912 16.5003 88.8077 16.0499 87.5473 15.8397C87.0401 15.7947 86.4867 15.5695 85.9949 15.8097C84.796 16.2301 84.9343 18.0617 86.1639 18.347C91.021 19.2028 94.049 21.695 97.6303 25.3734C97.6611 25.4034 97.6918 25.4485 97.7226 25.4785C97.8455 25.6586 98.1375 26.034 98.2759 26.1691C98.6909 26.5445 99.2596 26.7246 99.8129 26.7997C102.887 27.0699 104.716 27.5504 108.021 29.9225C108.067 29.9526 108.113 29.9826 108.159 30.0276C108.451 30.2528 109.373 30.9885 109.589 31.2137C110.419 31.9344 109.927 31.8743 110.849 32.3698C112.278 33.0304 113.616 31.0936 112.463 30.0126V30.0276Z" fill="#B3B3B3"/>
</g>
<path d="M37.065 182.765H38.085V185.195C38.085 185.945 37.99 186.68 37.8 187.4C37.62 188.12 37.36 188.795 37.02 189.425C36.68 190.055 36.28 190.615 35.82 191.105C35.36 191.595 34.86 191.985 34.32 192.275L33.555 191.27C34.055 191.02 34.515 190.685 34.935 190.265C35.365 189.835 35.74 189.345 36.06 188.795C36.38 188.245 36.625 187.665 36.795 187.055C36.975 186.435 37.065 185.815 37.065 185.195V182.765ZM37.29 182.765H38.295V185.195C38.295 185.795 38.38 186.39 38.55 186.98C38.73 187.57 38.98 188.125 39.3 188.645C39.62 189.165 39.985 189.63 40.395 190.04C40.815 190.45 41.265 190.775 41.745 191.015L40.98 192.005C40.45 191.735 39.96 191.365 39.51 190.895C39.07 190.425 38.68 189.89 38.34 189.29C38.01 188.68 37.75 188.03 37.56 187.34C37.38 186.64 37.29 185.925 37.29 185.195V182.765ZM42.93 181.595H44.175V195.17H42.93V181.595ZM43.89 187.085H46.395V188.15H43.89V187.085ZM51.1638 183.08H52.1988V184.475C52.1988 185.305 52.0388 186.075 51.7188 186.785C51.3988 187.495 50.9488 188.12 50.3688 188.66C49.7988 189.19 49.1338 189.59 48.3738 189.86L47.7288 188.885C48.4088 188.635 49.0038 188.29 49.5138 187.85C50.0338 187.41 50.4388 186.9 50.7288 186.32C51.0188 185.73 51.1638 185.115 51.1638 184.475V183.08ZM51.4038 183.08H52.4238V184.475C52.4238 184.935 52.5038 185.38 52.6638 185.81C52.8338 186.23 53.0738 186.625 53.3838 186.995C53.6938 187.355 54.0538 187.675 54.4638 187.955C54.8838 188.235 55.3438 188.455 55.8438 188.615L55.2138 189.59C54.4638 189.33 53.8038 188.95 53.2338 188.45C52.6638 187.95 52.2138 187.36 51.8838 186.68C51.5638 186 51.4038 185.265 51.4038 184.475V183.08ZM48.0588 182.72H55.4838V183.74H48.0588V182.72ZM57.4188 181.61H58.6638V191.54H57.4188V181.61ZM49.9488 193.85H59.0838V194.87H49.9488V193.85ZM49.9488 190.61H51.1938V194.3H49.9488V190.61ZM67.4677 181.835C68.9677 181.835 70.1377 182.04 70.9777 182.45C71.8177 182.85 72.2377 183.425 72.2377 184.175C72.2377 184.935 71.8177 185.52 70.9777 185.93C70.1377 186.33 68.9677 186.53 67.4677 186.53C65.9777 186.53 64.8077 186.33 63.9577 185.93C63.1177 185.52 62.6977 184.935 62.6977 184.175C62.6977 183.425 63.1177 182.85 63.9577 182.45C64.8077 182.04 65.9777 181.835 67.4677 181.835ZM67.4677 182.765C66.7377 182.765 66.1127 182.82 65.5927 182.93C65.0727 183.04 64.6727 183.2 64.3927 183.41C64.1227 183.62 63.9877 183.875 63.9877 184.175C63.9877 184.475 64.1227 184.735 64.3927 184.955C64.6727 185.165 65.0727 185.325 65.5927 185.435C66.1127 185.535 66.7377 185.585 67.4677 185.585C68.2077 185.585 68.8377 185.535 69.3577 185.435C69.8777 185.325 70.2727 185.165 70.5427 184.955C70.8227 184.735 70.9627 184.475 70.9627 184.175C70.9627 183.875 70.8227 183.62 70.5427 183.41C70.2727 183.2 69.8777 183.04 69.3577 182.93C68.8377 182.82 68.2077 182.765 67.4677 182.765ZM61.3477 187.445H73.6027V188.45H61.3477V187.445ZM62.8327 189.605H72.0277V192.665H64.0777V194.3H62.8627V191.75H70.8127V190.565H62.8327V189.605ZM62.8627 194.045H72.4327V195.02H62.8627V194.045ZM78.501 188.045H90.771V189.08H78.501V188.045ZM80.046 185.75H89.331V186.77H80.046V185.75ZM80.046 182.135H89.241V183.155H81.276V186.23H80.046V182.135ZM84.621 190.25C86.071 190.25 87.206 190.465 88.026 190.895C88.846 191.325 89.256 191.925 89.256 192.695C89.256 193.475 88.846 194.075 88.026 194.495C87.206 194.925 86.071 195.14 84.621 195.14C83.171 195.14 82.031 194.925 81.201 194.495C80.381 194.075 79.971 193.475 79.971 192.695C79.971 191.925 80.381 191.325 81.201 190.895C82.031 190.465 83.171 190.25 84.621 190.25ZM84.606 191.225C83.906 191.225 83.301 191.285 82.791 191.405C82.291 191.515 81.906 191.68 81.636 191.9C81.366 192.12 81.231 192.385 81.231 192.695C81.231 193.015 81.366 193.285 81.636 193.505C81.906 193.715 82.291 193.88 82.791 194C83.301 194.11 83.906 194.165 84.606 194.165C85.326 194.165 85.936 194.11 86.436 194C86.946 193.88 87.336 193.715 87.606 193.505C87.876 193.285 88.011 193.015 88.011 192.695C88.011 192.385 87.876 192.12 87.606 191.9C87.336 191.68 86.946 191.515 86.436 191.405C85.936 191.285 85.326 191.225 84.606 191.225ZM92.2848 189.065H104.585V190.085H92.2848V189.065ZM93.8448 181.94H103.01V185.24H95.1048V187.055H93.8748V184.31H101.78V182.93H93.8448V181.94ZM93.8748 186.65H103.295V187.64H93.8748V186.65ZM97.8198 187.16H99.0498V189.56H97.8198V187.16ZM93.6648 191.12H103.085V195.035H101.84V192.125H93.6648V191.12ZM106.069 183.92H112.804V184.94H106.069V183.92ZM109.444 185.84C110.014 185.84 110.514 185.97 110.944 186.23C111.384 186.49 111.729 186.855 111.979 187.325C112.229 187.785 112.354 188.32 112.354 188.93C112.354 189.54 112.229 190.08 111.979 190.55C111.729 191.01 111.384 191.375 110.944 191.645C110.514 191.905 110.014 192.035 109.444 192.035C108.884 192.035 108.384 191.905 107.944 191.645C107.504 191.375 107.159 191.01 106.909 190.55C106.659 190.08 106.534 189.54 106.534 188.93C106.534 188.32 106.659 187.785 106.909 187.325C107.159 186.865 107.504 186.505 107.944 186.245C108.384 185.975 108.884 185.84 109.444 185.84ZM109.444 186.89C109.104 186.89 108.794 186.98 108.514 187.16C108.244 187.33 108.029 187.57 107.869 187.88C107.719 188.18 107.644 188.53 107.644 188.93C107.644 189.33 107.719 189.685 107.869 189.995C108.029 190.305 108.244 190.545 108.514 190.715C108.794 190.885 109.104 190.97 109.444 190.97C109.794 190.97 110.104 190.885 110.374 190.715C110.644 190.545 110.854 190.305 111.004 189.995C111.164 189.685 111.244 189.33 111.244 188.93C111.244 188.53 111.164 188.18 111.004 187.88C110.854 187.57 110.644 187.33 110.374 187.16C110.104 186.98 109.794 186.89 109.444 186.89ZM116.389 181.595H117.574V195.17H116.389V181.595ZM114.214 187.31H116.779V188.33H114.214V187.31ZM113.479 181.91H114.649V194.51H113.479V181.91ZM108.829 182H110.059V184.535H108.829V182ZM125.327 182.945H126.407V183.515C126.407 183.995 126.312 184.45 126.122 184.88C125.932 185.31 125.667 185.71 125.327 186.08C124.987 186.44 124.592 186.76 124.142 187.04C123.692 187.32 123.207 187.56 122.687 187.76C122.177 187.95 121.647 188.09 121.097 188.18L120.617 187.19C121.097 187.13 121.562 187.02 122.012 186.86C122.472 186.69 122.902 186.49 123.302 186.26C123.702 186.03 124.052 185.77 124.352 185.48C124.662 185.19 124.902 184.88 125.072 184.55C125.242 184.21 125.327 183.865 125.327 183.515V182.945ZM125.642 182.945H126.722V183.515C126.722 183.865 126.807 184.21 126.977 184.55C127.147 184.88 127.382 185.19 127.682 185.48C127.992 185.77 128.347 186.03 128.747 186.26C129.147 186.49 129.572 186.69 130.022 186.86C130.482 187.02 130.952 187.13 131.432 187.19L130.967 188.18C130.417 188.09 129.882 187.95 129.362 187.76C128.842 187.56 128.357 187.32 127.907 187.04C127.457 186.76 127.062 186.44 126.722 186.08C126.382 185.71 126.117 185.31 125.927 184.88C125.737 184.45 125.642 183.995 125.642 183.515V182.945ZM125.387 189.995H126.617V195.155H125.387V189.995ZM119.897 189.32L132.152 189.32V190.34L119.897 190.34V189.32ZM121.052 182.435L130.982 182.435V183.44L121.052 183.44V182.435ZM139.036 186.455H141.646V187.49H139.036V186.455ZM136.516 182.87H137.491V185.465C137.491 186.165 137.416 186.855 137.266 187.535C137.126 188.215 136.916 188.855 136.636 189.455C136.366 190.055 136.036 190.595 135.646 191.075C135.256 191.555 134.816 191.945 134.326 192.245L133.546 191.315C134.006 191.035 134.421 190.685 134.791 190.265C135.161 189.845 135.471 189.375 135.721 188.855C135.981 188.325 136.176 187.775 136.306 187.205C136.446 186.625 136.516 186.045 136.516 185.465V182.87ZM136.756 182.87H137.716V185.42C137.716 185.96 137.776 186.505 137.896 187.055C138.026 187.595 138.206 188.115 138.436 188.615C138.676 189.105 138.971 189.555 139.321 189.965C139.671 190.375 140.066 190.715 140.506 190.985L139.801 191.945C139.311 191.645 138.876 191.265 138.496 190.805C138.116 190.335 137.796 189.81 137.536 189.23C137.276 188.64 137.081 188.02 136.951 187.37C136.821 186.72 136.756 186.07 136.756 185.42V182.87ZM144.031 181.595H145.231V195.17H144.031V181.595ZM141.271 181.88H142.441V194.48H141.271V181.88ZM150.51 188.585H151.74V192.635H150.51V188.585ZM155.52 188.585H156.765V192.635H155.52V188.585ZM147.495 192.395H159.795V193.43H147.495V192.395ZM153.615 182.45C154.575 182.45 155.425 182.595 156.165 182.885C156.905 183.175 157.485 183.58 157.905 184.1C158.335 184.62 158.55 185.235 158.55 185.945C158.55 186.645 158.335 187.26 157.905 187.79C157.485 188.31 156.905 188.715 156.165 189.005C155.425 189.285 154.575 189.425 153.615 189.425C152.665 189.425 151.815 189.285 151.065 189.005C150.325 188.715 149.745 188.31 149.325 187.79C148.905 187.26 148.695 186.645 148.695 185.945C148.695 185.235 148.905 184.62 149.325 184.1C149.745 183.58 150.325 183.175 151.065 182.885C151.815 182.595 152.665 182.45 153.615 182.45ZM153.615 183.44C152.895 183.44 152.255 183.545 151.695 183.755C151.135 183.965 150.695 184.26 150.375 184.64C150.055 185.01 149.895 185.445 149.895 185.945C149.895 186.445 150.055 186.885 150.375 187.265C150.695 187.635 151.135 187.925 151.695 188.135C152.255 188.345 152.895 188.45 153.615 188.45C154.345 188.45 154.99 188.345 155.55 188.135C156.11 187.925 156.55 187.635 156.87 187.265C157.19 186.885 157.35 186.445 157.35 185.945C157.35 185.445 157.19 185.01 156.87 184.64C156.55 184.26 156.11 183.965 155.55 183.755C154.99 183.545 154.345 183.44 153.615 183.44ZM162.629 194.195C162.359 194.195 162.124 194.1 161.924 193.91C161.734 193.71 161.639 193.46 161.639 193.16C161.639 192.84 161.734 192.585 161.924 192.395C162.124 192.205 162.359 192.11 162.629 192.11C162.899 192.11 163.129 192.205 163.319 192.395C163.519 192.585 163.619 192.84 163.619 193.16C163.619 193.46 163.519 193.71 163.319 193.91C163.129 194.1 162.899 194.195 162.629 194.195Z" fill="#B4B4B4"/>
<path d="M28.0001 195.286C27.8069 195.74 27.675 196.234 27.4062 196.638C26.7683 197.596 25.8193 198 24.6729 197.999C18.6123 197.995 12.5526 197.997 6.49206 197.996C5.40786 197.996 4.32284 198.003 3.23864 197.995C1.70981 197.983 0.430676 197.006 0.0855913 195.587C0.0283537 195.351 0.00346772 195.103 0.00346772 194.86C0.000149598 190.455 -0.00150946 186.05 0.00180866 181.646C0.00346772 179.937 1.39957 178.526 3.11919 178.506C4.47713 178.491 5.83507 178.503 7.19301 178.502C7.29256 178.502 7.3921 178.502 7.51321 178.502C7.5381 178.311 7.54557 178.129 7.58621 177.957C7.87489 176.756 8.80894 176.016 10.1096 176.01C12.6978 175.996 15.2859 175.998 17.8741 176.009C19.125 176.014 20.0425 176.71 20.3593 177.861C20.4141 178.06 20.4315 178.269 20.4705 178.503C20.5634 178.503 20.6613 178.503 20.7592 178.503C22.0715 178.503 23.3838 178.503 24.6961 178.503C26.3817 178.505 27.5879 179.469 27.9545 181.105C27.9595 181.128 27.9844 181.148 27.9993 181.169V195.286H28.0001ZM13.9943 196.571C17.5207 196.571 21.047 196.572 24.5734 196.569C24.8081 196.569 25.052 196.565 25.2776 196.508C26.1337 196.293 26.609 195.601 26.6099 194.597C26.6115 190.347 26.6115 186.097 26.6082 181.846C26.6082 181.639 26.6007 181.425 26.5493 181.226C26.3386 180.4 25.6683 179.92 24.7359 179.918C23.096 179.914 21.4551 179.918 19.8152 179.915C19.3224 179.914 19.0354 179.625 19.0321 179.141C19.0304 178.94 19.0337 178.741 19.0321 178.541C19.0238 177.796 18.6273 177.404 17.8757 177.404C16.5999 177.402 15.3241 177.404 14.0483 177.404C12.7177 177.404 11.3871 177.4 10.0574 177.405C9.43192 177.408 9.03292 177.799 9.01301 178.418C9.00637 178.626 9.01135 178.835 9.00969 179.045C9.00554 179.631 8.72433 179.915 8.14366 179.916C6.53105 179.917 4.91761 179.914 3.305 179.917C2.13205 179.919 1.41865 180.634 1.41865 181.803C1.41865 184.863 1.41865 187.924 1.41865 190.984C1.41865 192.256 1.41865 193.527 1.41865 194.799C1.41865 195.391 1.64843 195.871 2.12209 196.232C2.49704 196.518 2.9342 196.57 3.38713 196.57C6.92259 196.569 10.458 196.57 13.9935 196.57L13.9943 196.571Z" fill="#B4B4B4"/>
<path d="M13.9671 181.718C17.5469 181.733 20.4776 184.675 20.4431 188.243C20.4077 191.886 17.5263 194.719 13.9211 194.718C10.3199 194.718 7.42128 191.765 7.44349 188.196C7.46569 184.607 10.3907 181.702 13.9671 181.718ZM18.997 188.288C19.0077 185.453 16.7786 183.192 13.9589 183.179C11.1663 183.166 8.90433 185.422 8.89282 188.233C8.8813 191.04 11.1096 193.309 13.9334 193.306C16.7802 193.304 19.0349 191.008 18.997 188.288Z" fill="#B4B4B4"/>
<path d="M25.1611 183.208C25.1573 184.04 24.4951 184.7 23.6654 184.697C22.8472 184.694 22.1659 184.018 22.1612 183.202C22.1564 182.38 22.8633 181.683 23.6873 181.697C24.5189 181.711 25.164 182.373 25.1602 183.208H25.1611Z" fill="#B4B4B4"/>
</svg>
