<svg width="18" height="18" viewBox="0 0 18 18" fill="none" xmlns="http://www.w3.org/2000/svg">
<path d="M15.8741 6.85862H11.1569V2.14138C11.1569 0.962069 10.1948 0 9.01552 0C7.83621 0 6.87414 0.962069 6.87414 2.14138V6.85862H2.14138C0.962069 6.85862 0 7.82069 0 9C0 10.1793 0.962069 11.1414 2.14138 11.1414H6.85862V15.8586C6.85862 17.0379 7.82069 18 9 18C10.1793 18 11.1414 17.0379 11.1414 15.8586V11.1414H15.8586C17.0379 11.1414 18 10.1793 18 9C18 7.82069 17.0379 6.85862 15.8586 6.85862H15.8741Z" fill="#DDE2F1"/>
</svg>
