<svg width="35" height="35" viewBox="0 0 35 35" fill="none" xmlns="http://www.w3.org/2000/svg">
<circle cx="17.5" cy="17.5" r="17.125" fill="#DDE2F1" stroke="#D9D9D9" stroke-width="0.75"/>
<path d="M17.5943 22.3196L17.4558 22.3199C13.6552 22.329 10.5636 19.2115 10.5508 15.3271C10.5381 11.4434 13.6205 8.29407 17.4091 8.28761C21.2145 8.28114 24.3106 11.406 24.3157 15.2797C24.3207 19.1267 21.3221 22.2363 17.5943 22.3196Z" fill="#8C9AC8" stroke="#D9D9D9" stroke-width="0.75"/>
<path d="M29.4588 29.5014C26.3739 32.6266 22.1251 34.557 17.4338 34.557H17.4311C12.7398 34.557 8.49099 32.6266 5.40607 29.5014C7.10599 26.687 10.1518 24.8147 13.6252 24.8147H21.2397C24.7131 24.8147 27.7589 26.687 29.4588 29.5014Z" fill="#8C9AC8" stroke="#D9D9D9" stroke-width="0.75"/>
<circle cx="17.5" cy="17.5" r="17.125" stroke="#D9D9D9" stroke-width="0.75"/>
</svg>
