<svg width="516" height="53" viewBox="0 0 516 53" fill="none" xmlns="http://www.w3.org/2000/svg">
<rect x="0.375" y="0.375" width="515.25" height="52.25" rx="4.625" fill="#1E388B" stroke="#D9D9D9" stroke-width="0.75"/>
<path d="M214.78 26.944H235.036V29.8H214.78V26.944ZM217.204 22.768H232.756V25.552H217.204V22.768ZM217.204 17.344H232.636V20.152H220.708V24.16H217.204V17.344ZM224.812 30.952C227.244 30.952 229.148 31.312 230.524 32.032C231.916 32.752 232.612 33.768 232.612 35.08C232.612 36.392 231.916 37.408 230.524 38.128C229.148 38.848 227.244 39.208 224.812 39.208C222.396 39.208 220.492 38.848 219.1 38.128C217.708 37.424 217.012 36.408 217.012 35.08C217.012 33.768 217.708 32.752 219.1 32.032C220.492 31.312 222.396 30.952 224.812 30.952ZM224.812 33.592C223.868 33.592 223.084 33.648 222.46 33.76C221.836 33.872 221.364 34.032 221.044 34.24C220.74 34.448 220.588 34.728 220.588 35.08C220.588 35.432 220.74 35.72 221.044 35.944C221.364 36.152 221.836 36.304 222.46 36.4C223.084 36.496 223.868 36.544 224.812 36.544C225.772 36.544 226.564 36.496 227.188 36.4C227.812 36.304 228.276 36.152 228.58 35.944C228.884 35.72 229.036 35.432 229.036 35.08C229.036 34.728 228.884 34.448 228.58 34.24C228.276 34.032 227.812 33.872 227.188 33.76C226.564 33.648 225.772 33.592 224.812 33.592ZM236.834 28.72H257.09V31.528H236.834V28.72ZM239.306 17.224H254.666V23.464H242.81V25.72H239.33V20.992H251.186V19.888H239.306V17.224ZM239.33 24.664H255.098V27.328H239.33V24.664ZM245.21 25.96H248.738V30.28H245.21V25.96ZM239.066 32.656H254.81V39.16H251.282V35.44H239.066V32.656ZM273.024 16.84H276.552V39.208H273.024V16.84ZM275.76 25.432H279.648V28.36H275.76V25.432ZM258.816 20.056H271.8V22.864H258.816V20.056ZM265.344 23.968C266.432 23.968 267.4 24.2 268.248 24.664C269.112 25.128 269.792 25.76 270.288 26.56C270.8 27.36 271.056 28.288 271.056 29.344C271.056 30.384 270.8 31.312 270.288 32.128C269.792 32.944 269.112 33.584 268.248 34.048C267.4 34.512 266.424 34.744 265.32 34.744C264.232 34.744 263.256 34.512 262.392 34.048C261.528 33.584 260.84 32.944 260.328 32.128C259.832 31.312 259.584 30.384 259.584 29.344C259.584 28.288 259.832 27.36 260.328 26.56C260.84 25.76 261.528 25.128 262.392 24.664C263.256 24.2 264.24 23.968 265.344 23.968ZM265.32 26.824C264.872 26.824 264.464 26.92 264.096 27.112C263.744 27.304 263.464 27.592 263.256 27.976C263.064 28.344 262.968 28.8 262.968 29.344C262.968 29.888 263.064 30.352 263.256 30.736C263.464 31.104 263.744 31.392 264.096 31.6C264.464 31.792 264.872 31.888 265.32 31.888C265.784 31.888 266.192 31.792 266.544 31.6C266.896 31.392 267.176 31.104 267.384 30.736C267.592 30.352 267.696 29.888 267.696 29.344C267.696 28.8 267.592 28.344 267.384 27.976C267.176 27.592 266.896 27.304 266.544 27.112C266.192 26.92 265.784 26.824 265.32 26.824ZM263.544 17.224H267.096V21.088H263.544V17.224ZM296.158 16.816H299.71V39.184H296.158V16.816ZM289.558 19.12H293.062C293.062 20.848 292.902 22.496 292.582 24.064C292.262 25.616 291.726 27.08 290.974 28.456C290.222 29.832 289.182 31.112 287.854 32.296C286.526 33.48 284.854 34.56 282.838 35.536L280.99 32.728C283.134 31.704 284.83 30.576 286.078 29.344C287.326 28.096 288.214 26.688 288.742 25.12C289.286 23.536 289.558 21.752 289.558 19.768V19.12ZM282.238 19.12H291.238V21.904H282.238V19.12Z" fill="white"/>
</svg>
