<svg width="19" height="22" viewBox="0 0 19 22" fill="none" xmlns="http://www.w3.org/2000/svg">
<g clip-path="url(#clip0_339_5941)">
<path d="M16.9263 22.0002H2.09723C2.05811 21.9849 2.01898 21.9696 1.97985 21.9543C1.43208 21.8473 0.970381 21.5874 0.602589 21.1746C0.148717 20.6701 3.51797e-05 20.0738 3.51797e-05 19.4164C3.51797e-05 15.6937 3.51797e-05 11.971 3.51797e-05 8.24828C3.51797e-05 6.33723 0.00786055 4.41853 3.51797e-05 2.50748C-0.00779019 0.909846 1.29122 -0.0151018 2.56676 0.000186588C5.90036 0.0307634 9.23397 0.015475 12.5754 0.00783079C12.8415 0.00783079 13.0528 0.091917 13.2406 0.275378C15.0639 2.06412 16.8872 3.84522 18.7183 5.62632C18.914 5.81742 19.0079 6.01617 19.0079 6.29136C19 7.25453 19.0079 8.2177 19.0079 9.18087C19.0079 12.6896 19.0079 16.1982 19 19.6993C19 20.6319 18.507 21.3122 17.6775 21.7403C17.4506 21.8549 17.1924 21.9161 16.942 22.0002H16.9263ZM12.0198 1.2997H11.832C8.74097 1.2997 5.64213 1.2997 2.55111 1.2997C1.75292 1.2997 1.33817 1.86537 1.33817 2.49219C1.346 8.16419 1.35382 13.8362 1.33817 19.5082C1.33817 20.1656 1.76857 20.716 2.58241 20.716C7.19938 20.716 11.8163 20.716 16.4255 20.716C17.2237 20.716 17.6775 20.2726 17.6775 19.4929C17.6775 15.3497 17.6775 11.2066 17.6775 7.06342C17.6775 6.98698 17.6775 6.91054 17.6775 6.82646C17.568 6.82646 17.4897 6.82646 17.4115 6.82646C16.449 6.82646 15.4786 6.82646 14.5161 6.82646C13.0919 6.82646 12.0276 5.78684 12.0276 4.38796C12.0276 3.44772 12.0276 2.49984 12.0276 1.5596C12.0276 1.48316 12.0276 1.40672 12.0276 1.2997H12.0198ZM13.3658 2.30109C13.3658 3.05022 13.3501 3.81464 13.3658 4.57142C13.3814 5.06065 13.7883 5.47343 14.2892 5.49636C15.0169 5.53459 15.7447 5.5193 16.4803 5.52694C16.5429 5.52694 16.6055 5.5193 16.6524 5.5193C15.549 4.44147 14.4535 3.37128 13.3579 2.30109H13.3658Z" fill="#1E388B"/>
<path d="M5.03863 7.4302C4.02133 6.19948 4.39695 4.79295 5.23426 4.06675C6.15765 3.26411 7.5271 3.25647 8.45831 4.05146C9.31128 4.77766 9.69472 6.19184 8.7009 7.39198C8.97479 7.66717 9.27215 7.92707 9.51474 8.22519C9.95296 8.76793 10.1564 9.4024 10.1721 10.0904C10.1721 10.3656 10.1721 10.6484 10.1721 10.9236C10.1721 11.3899 9.90601 11.6498 9.42866 11.6574C8.67742 11.6574 7.92619 11.6574 7.16713 11.6574C6.22808 11.6574 5.29686 11.6498 4.35782 11.6574C3.857 11.6574 3.50485 11.3746 3.54398 10.8548C3.58311 10.3732 3.55181 9.88398 3.64571 9.41004C3.79439 8.63034 4.24826 8.01116 4.89777 7.53721C4.94472 7.50664 4.99167 7.46842 5.04645 7.42255L5.03863 7.4302ZM8.84176 10.3426C8.85741 9.53999 8.57569 8.90553 7.87924 8.50038C7.14365 8.07231 6.40024 8.10289 5.70378 8.58447C5.08558 9.0049 4.85082 9.61644 4.87429 10.3503H8.84176V10.3426ZM6.84629 4.76237C6.23591 4.76237 5.74291 5.2516 5.75074 5.8402C5.75856 6.42881 6.24373 6.90275 6.83846 6.91039C7.43319 6.91039 7.94184 6.42881 7.94184 5.83256C7.94184 5.23631 7.45667 4.76237 6.83846 4.76237H6.84629Z" fill="#1E388B"/>
<path d="M9.51514 17.2529C11.2289 17.2529 12.9348 17.2529 14.6486 17.2529C15.1416 17.2529 15.4624 17.5052 15.4624 17.9027C15.4624 18.3002 15.1494 18.5601 14.6408 18.5677C11.2132 18.5677 7.77791 18.5677 4.3504 18.5677C3.88088 18.5677 3.57569 18.3537 3.54439 17.9868C3.50526 17.5816 3.81045 17.2682 4.27214 17.2606C4.77297 17.2606 5.26597 17.2606 5.76679 17.2606C7.01885 17.2606 8.27091 17.2606 9.51514 17.2606V17.2529Z" fill="#1E388B"/>
<path d="M9.53133 13.813C11.2842 13.813 13.0449 13.813 14.7978 13.813C15.1499 13.813 15.4082 14.0423 15.463 14.371C15.5099 14.6615 15.3143 14.9673 15.0013 15.0666C14.923 15.0896 14.8291 15.0972 14.743 15.0972C11.2451 15.0972 7.75497 15.0972 4.25703 15.0972C3.82664 15.0972 3.54492 14.8297 3.54492 14.4551C3.54492 14.0729 3.83446 13.813 4.26486 13.813C6.01774 13.813 7.77845 13.813 9.53133 13.813Z" fill="#1E388B"/>
<path d="M13.9207 11.6651C13.6468 11.6651 13.3807 11.6651 13.1068 11.6651C12.6686 11.6574 12.3634 11.3746 12.3712 11.0077C12.3712 10.6407 12.6764 10.3656 13.099 10.3579C13.6468 10.3579 14.1946 10.3579 14.7423 10.3579C15.1649 10.3579 15.4701 10.6407 15.4701 11.0077C15.4701 11.3822 15.1649 11.6574 14.7267 11.6651C14.4528 11.6651 14.1867 11.6651 13.9128 11.6651H13.9207Z" fill="#1E388B"/>
</g>
<defs>
<clipPath id="clip0_339_5941">
<rect width="19" height="22" fill="white"/>
</clipPath>
</defs>
</svg>
