<svg width="111" height="37" viewBox="0 0 111 37" fill="none" xmlns="http://www.w3.org/2000/svg">
<rect x="1" y="1" width="109" height="35" rx="4" fill="#1E388B" stroke="#1E388B" stroke-width="2"/>
<path d="M34.7907 12.595H36.0357V26.185H34.7907V12.595ZM28.8807 13.645C30.8907 13.645 32.3307 15.49 32.3307 18.37C32.3307 21.265 30.8907 23.11 28.8807 23.11C26.8857 23.11 25.4457 21.265 25.4457 18.37C25.4457 15.49 26.8857 13.645 28.8807 13.645ZM28.8807 14.77C27.5607 14.77 26.6307 16.18 26.6307 18.37C26.6307 20.575 27.5607 22.015 28.8807 22.015C30.2157 22.015 31.1307 20.575 31.1307 18.37C31.1307 16.18 30.2157 14.77 28.8807 14.77ZM38.5545 19.33H39.5295C42.1995 19.33 43.5195 19.285 45.1395 19L45.2745 20.005C43.5945 20.305 42.2445 20.35 39.5295 20.35H38.5545V19.33ZM38.5245 13.42H44.3745V17.275H39.7845V19.945H38.5545V16.3H43.1445V14.44H38.5245V13.42ZM47.8995 12.625H49.1445V20.95H47.8995V12.625ZM45.2745 14.62H48.1845V15.64H45.2745V14.62ZM45.2745 17.425H48.1845V18.445H45.2745V17.425ZM40.0695 21.685H49.1445V26.2H47.8995V22.705H40.0695V21.685ZM57.8133 17.2H61.5933V18.22H57.8133V17.2ZM54.5433 13.78H55.5633V16.195C55.5633 19.24 53.9583 22.15 51.8133 23.305L51.0183 22.315C53.0133 21.325 54.5433 18.715 54.5433 16.195V13.78ZM54.7833 13.78H55.7883V16.195C55.7883 18.67 57.3183 21.13 59.2833 22.06L58.5483 23.065C56.3583 21.955 54.7833 19.165 54.7833 16.195V13.78ZM60.9783 12.595H62.2083V26.185H60.9783V12.595ZM66.7017 19.06H78.9567V20.095H66.7017V19.06ZM68.2467 16.765H77.5317V17.77H68.2467V16.765ZM68.2467 13.15H77.4267V14.17H69.4767V17.245H68.2467V13.15ZM72.8067 21.265C75.7017 21.265 77.4567 22.15 77.4567 23.71C77.4567 25.27 75.7017 26.14 72.8067 26.14C69.9117 26.14 68.1567 25.27 68.1567 23.71C68.1567 22.15 69.9117 21.265 72.8067 21.265ZM72.8067 22.225C70.6917 22.225 69.4167 22.765 69.4167 23.71C69.4167 24.64 70.6917 25.165 72.8067 25.165C74.9367 25.165 76.1967 24.64 76.1967 23.71C76.1967 22.765 74.9367 22.225 72.8067 22.225ZM79.7355 20.065H92.0355V21.085H79.7355V20.065ZM81.2955 12.955H90.4455V16.24H82.5555V18.07H81.3255V15.325H89.2305V13.93H81.2955V12.955ZM81.3255 17.665H90.7455V18.64H81.3255V17.665ZM85.2555 18.175H86.5005V20.575H85.2555V18.175ZM81.1005 22.12H90.5355V26.05H89.2905V23.14H81.1005V22.12Z" fill="white"/>
</svg>
