<svg width="14" height="14" viewBox="0 0 14 14" fill="none" xmlns="http://www.w3.org/2000/svg">
<path d="M6.5 0C10.09 0 13 2.91008 13 6.50018C13 7.93422 12.536 9.25926 11.75 10.3343L13.707 12.2933C14.097 12.6834 14.097 13.3174 13.707 13.7074C13.347 14.0674 12.779 14.0954 12.387 13.7904L12.293 13.7074L10.333 11.7503C9.26 12.5363 7.934 13.0004 6.5 13.0004C2.91 13.0004 0 10.0903 0 6.50018C0 2.91008 2.91 0 6.5 0ZM6.5 2.00006C4.015 2.00006 2 4.01511 2 6.50018C2 8.98525 4.015 11.0003 6.5 11.0003C8.985 11.0003 11 8.98525 11 6.50018C11 4.01511 8.985 2.00006 6.5 2.00006Z" fill="#1E388B"/>
</svg>
