<svg width="22" height="22" viewBox="0 0 22 22" fill="none" xmlns="http://www.w3.org/2000/svg">
<path d="M20.4522 15.3428C20.8623 15.421 21.2627 15.1473 21.3408 14.7367L21.9854 11.3641C22.0244 11.1686 21.9853 10.9633 21.8682 10.7874C21.751 10.6212 21.5752 10.5039 21.3799 10.4648L20.0811 10.2204C20.0225 9.50678 19.876 8.80293 19.6417 8.12842L20.7354 7.38547C21.0869 7.15086 21.1748 6.67185 20.9405 6.31993L19.0167 3.485C18.8995 3.31882 18.7237 3.20151 18.5284 3.16241C18.3331 3.12331 18.128 3.16241 17.962 3.27972L16.8683 4.02266C16.3215 3.56321 15.7258 3.16241 15.0813 2.84959L15.3254 1.54943C15.4035 1.13886 15.1301 0.738058 14.7199 0.659853L11.3509 0.0146634C11.1556 -0.024439 10.9505 0.0146634 10.7845 0.131971C10.6185 0.249278 10.5013 0.425239 10.4622 0.620751L10.2181 1.92091C9.50524 1.97956 8.8119 2.12619 8.12833 2.36081L7.38616 1.26594C7.26898 1.09976 7.0932 0.982448 6.8979 0.943346C6.70259 0.904244 6.49752 0.943346 6.33151 1.06065L3.49956 2.98645C3.33355 3.10375 3.21636 3.27972 3.1773 3.47523C3.13824 3.67074 3.1773 3.87603 3.29449 4.04221L4.03665 5.13708C3.57768 5.68451 3.1773 6.28083 2.86481 6.92602L1.56602 6.68163C1.37071 6.64252 1.16564 6.68163 0.999631 6.79893C0.83362 6.91624 0.716436 7.0922 0.677375 7.28771L0.0133313 10.6603C-0.0647915 11.0709 0.208638 11.4717 0.618783 11.5499L1.91757 11.7943C1.97617 12.5079 2.12265 13.202 2.34725 13.8862L1.25353 14.6292C1.08752 14.7465 0.970335 14.9127 0.931273 15.118C0.892212 15.3135 0.931274 15.5188 1.04846 15.685L2.97223 18.5199C3.08941 18.6861 3.26519 18.8034 3.4605 18.8425C3.6558 18.8816 3.86088 18.8425 4.02689 18.7252L5.1206 17.9822C5.66746 18.4417 6.26315 18.8425 6.90766 19.1553L6.66353 20.4555C6.58541 20.866 6.85884 21.2668 7.26898 21.345L10.638 21.9902C10.638 21.9902 10.7357 22 10.7845 22C11.1458 22 11.4583 21.7458 11.5364 21.3841L11.7806 20.084C12.4934 20.0253 13.1868 19.8787 13.8704 19.6441L14.6125 20.7389C14.7297 20.9051 14.9055 21.0224 15.1008 21.0615C15.2961 21.1006 15.5012 21.0615 15.6672 20.9442L18.4991 19.0184C18.8507 18.7838 18.9386 18.3048 18.7042 17.9627L17.962 16.8678C18.421 16.3204 18.8116 15.7241 19.1339 15.0789L20.4327 15.3233L20.4522 15.3428ZM18.0011 13.9351C17.6398 14.8052 17.1222 15.597 16.4582 16.2813C16.2043 16.5452 16.175 16.946 16.38 17.2393L17.0343 18.1973L15.4621 19.2628L14.8078 18.3048C14.6028 18.0018 14.2219 17.8942 13.8899 18.0311C13.011 18.3928 12.0833 18.5883 11.1458 18.5981C10.7845 18.5981 10.4818 18.862 10.4134 19.214L10.1986 20.3577L8.3334 20.0058L8.54824 18.862C8.6166 18.5101 8.42129 18.1582 8.08927 18.0116C7.22015 17.6499 6.42916 17.1317 5.74559 16.467C5.48192 16.2128 5.08154 16.1835 4.78858 16.3888L3.83158 17.0438L2.75739 15.4699L3.7144 14.8149C4.01712 14.6096 4.12454 14.2284 3.98783 13.896C3.62651 13.0162 3.4312 12.0875 3.42144 11.1491C3.42144 10.7874 3.15777 10.4843 2.80622 10.4159L1.66367 10.2008L2.02499 8.3337L3.16754 8.54877C3.51909 8.6172 3.87064 8.42169 4.01712 8.08931C4.37844 7.21929 4.896 6.42746 5.56005 5.74317C5.81394 5.47923 5.84324 5.07843 5.63817 4.78516L4.98389 3.82715L6.55611 2.75183L7.21039 3.70984C7.41546 4.00311 7.79631 4.12042 8.12833 3.98356C9.00721 3.62186 9.93492 3.42635 10.8724 3.41657C11.2337 3.41657 11.5364 3.15263 11.6048 2.80071L11.8196 1.65697L13.6848 2.01866L13.47 3.16241C13.4016 3.51433 13.5969 3.86625 13.9289 4.01289C14.7981 4.37458 15.5891 4.89269 16.2726 5.55743C16.5363 5.8116 16.9367 5.84092 17.2296 5.63564L18.1866 4.98067L19.2608 6.55454L18.3038 7.20951C18.0011 7.4148 17.8937 7.79605 18.0304 8.12842C18.3917 9.00822 18.587 9.92713 18.5968 10.8754C18.5968 11.2371 18.8604 11.5401 19.212 11.6085L20.3448 11.8236L19.9835 13.6907L18.8409 13.4757C18.4894 13.4072 18.1378 13.593 17.9913 13.9351H18.0011Z" fill="#1E388B"/>
<path d="M12.0237 5.62557C10.5882 5.35185 9.13317 5.65489 7.92227 6.47604C6.71137 7.29719 5.89108 8.54847 5.61765 9.98549C5.34422 11.4225 5.64695 12.8791 6.46724 14.0912C7.28752 15.3034 8.53749 16.1246 9.97299 16.3983C10.3148 16.4667 10.6663 16.496 10.9984 16.496C13.5764 16.496 15.881 14.668 16.3791 12.0384C16.9454 9.06658 14.9924 6.19255 12.0237 5.62557ZM14.885 11.7549C14.6897 12.7911 14.094 13.6904 13.2249 14.2868C12.3557 14.8831 11.3011 15.0981 10.266 14.9026C9.23083 14.7071 8.33242 14.1108 7.73673 13.2408C7.14104 12.3707 6.92621 11.315 7.12151 10.2788C7.31682 9.24254 7.91251 8.34318 8.78162 7.74687C9.44566 7.2972 10.2074 7.06258 10.9984 7.06258C11.2425 7.06258 11.4964 7.08213 11.7503 7.13101C13.8889 7.54159 15.3049 9.61401 14.8947 11.7646L14.885 11.7549Z" fill="#1E388B"/>
</svg>
