<svg width="111" height="37" viewBox="0 0 111 37" fill="none" xmlns="http://www.w3.org/2000/svg">
<rect x="1" y="1" width="109" height="35" rx="4" stroke="#1E388B" stroke-width="2"/>
<path d="M39.5362 25.21C37.3012 25.21 35.5912 23.995 35.5912 20.47V14.005H36.9712V20.515C36.9712 23.155 38.0962 23.98 39.5362 23.98C40.9912 23.98 42.1612 23.155 42.1612 20.515V14.005H43.4962V20.47C43.4962 23.995 41.7862 25.21 39.5362 25.21ZM45.6968 25V14.005H49.1318C51.3668 14.005 52.9718 14.815 52.9718 17.095C52.9718 19.3 51.3668 20.35 49.1318 20.35H47.0918V25H45.6968ZM47.0918 19.225H48.9368C50.6468 19.225 51.5918 18.52 51.5918 17.095C51.5918 15.655 50.6468 15.145 48.9368 15.145H47.0918V19.225ZM51.7418 25L48.8618 19.975L49.9418 19.255L53.3018 25H51.7418ZM54.4683 25V14.005H55.8633V23.83H60.6633V25H54.4683ZM61.1128 23.47H73.3978V24.505H61.1128V23.47ZM66.6028 20.56H67.8478V23.905H66.6028V20.56ZM62.5978 13.615H71.8828V17.725H63.8728V20.44H62.6428V16.72H70.6528V14.62H62.5978V13.615ZM62.6428 19.915H72.1978V20.935H62.6428V19.915ZM76.7661 19.06H89.0211V20.095H76.7661V19.06ZM78.3111 16.765H87.5961V17.77H78.3111V16.765ZM78.3111 13.15H87.4911V14.17H79.5411V17.245H78.3111V13.15ZM82.8711 21.265C85.7661 21.265 87.5211 22.15 87.5211 23.71C87.5211 25.27 85.7661 26.14 82.8711 26.14C79.9761 26.14 78.2211 25.27 78.2211 23.71C78.2211 22.15 79.9761 21.265 82.8711 21.265ZM82.8711 22.225C80.7561 22.225 79.4811 22.765 79.4811 23.71C79.4811 24.64 80.7561 25.165 82.8711 25.165C85.0011 25.165 86.2611 24.64 86.2611 23.71C86.2611 22.765 85.0011 22.225 82.8711 22.225ZM89.7999 20.065H102.1V21.085H89.7999V20.065ZM91.3599 12.955H100.51V16.24H92.6199V18.07H91.3899V15.325H99.2949V13.93H91.3599V12.955ZM91.3899 17.665H100.81V18.64H91.3899V17.665ZM95.3199 18.175H96.5649V20.575H95.3199V18.175ZM91.1649 22.12H100.6V26.05H99.3549V23.14H91.1649V22.12Z" fill="#1E388B"/>
<path d="M10.594 21.2842C10.6282 21.1381 10.6599 20.9913 10.6972 20.8464C10.898 20.0641 11.3122 19.4463 11.9565 19.0383C13.9273 17.7915 15.9003 16.5485 17.8842 15.3262C19.2178 14.5045 20.8815 15.005 21.6871 16.4239C22.0065 16.9863 22.2344 17.5789 22.2221 18.2476C22.2017 19.353 21.7702 20.2281 20.9188 20.8456C20.7198 20.9901 20.5084 21.1152 20.2981 21.2402C20.0227 21.4038 19.7134 21.3159 19.5637 21.0398C19.409 20.7546 19.4946 20.4178 19.7726 20.2358C19.9476 20.1211 20.1294 20.0178 20.3031 19.8997C21.1217 19.343 21.3831 18.2644 20.9382 17.3342C20.6926 16.8207 20.3717 16.4025 19.8511 16.2067C19.3146 16.0052 18.8053 16.0752 18.3171 16.383C17.4572 16.9247 16.596 17.4631 15.7347 18.0025C14.6963 18.6529 13.6589 19.3056 12.6187 19.9521C12.0618 20.2981 11.7251 20.8036 11.6708 21.5017C11.6539 21.7185 11.6634 21.9544 11.724 22.1593C11.959 22.9542 12.37 23.5816 13.1746 23.7843C13.636 23.9005 14.0682 23.808 14.4751 23.5541C14.896 23.2914 15.3148 23.0249 15.7379 22.7665C15.9827 22.617 16.2666 22.6808 16.4322 22.9091C16.5896 23.1263 16.5741 23.4566 16.3924 23.6596C16.3483 23.7089 16.2941 23.7502 16.2388 23.785C15.8143 24.053 15.3916 24.3256 14.9619 24.5837C13.5613 25.426 11.8973 24.9206 11.0805 23.4222C10.8455 22.9913 10.6856 22.5355 10.594 22.0473C10.594 21.793 10.594 21.5388 10.594 21.2842Z" fill="#1E388B"/>
<path d="M19.7809 24.0431C18.8943 24.008 18.0767 23.5331 17.5078 22.5684C17.1763 22.0064 16.9495 21.4061 16.9632 20.7298C16.9865 19.6007 17.4331 18.7175 18.3131 18.1039C18.4948 17.977 18.6847 17.863 18.8738 17.7487C19.1574 17.5774 19.4713 17.6611 19.6231 17.9433C19.7763 18.2281 19.69 18.5623 19.4114 18.747C19.2268 18.8693 19.0348 18.9787 18.852 19.1045C18.1109 19.6145 17.8259 20.625 18.182 21.4933C18.4117 22.0538 18.7322 22.5279 19.287 22.755C19.8376 22.9802 20.3639 22.9164 20.8704 22.5979C21.8877 21.9582 22.9064 21.322 23.9244 20.6839C24.7955 20.1379 25.6666 19.5919 26.537 19.0452C27.5385 18.4159 27.8002 17.3254 27.2289 16.2281C26.9062 15.6087 26.4416 15.2352 25.7857 15.1584C25.3866 15.1117 25.022 15.2299 24.6796 15.4455C24.265 15.7066 23.8518 15.9712 23.4327 16.2235C23.191 16.3692 22.9011 16.2901 22.7433 16.0568C22.594 15.8362 22.6207 15.5025 22.8064 15.3075C22.8437 15.2681 22.8881 15.2348 22.9332 15.2065C23.3837 14.9236 23.83 14.6326 24.2872 14.3631C25.5944 13.5919 27.219 14.0526 28.0207 15.4126C28.3501 15.9716 28.5952 16.5615 28.5938 17.2421C28.5914 18.4648 28.1028 19.392 27.1341 20.0083C25.8931 20.7975 24.644 21.5713 23.3981 22.352C22.7349 22.7676 22.0716 23.184 21.4079 23.5989C20.9165 23.9063 20.4657 24.042 19.7812 24.0439L19.7809 24.0431Z" fill="#1E388B"/>
</svg>
